<svg width="347" height="577" viewBox="0 0 347 577" fill="none" xmlns="http://www.w3.org/2000/svg">
<rect width="347" height="577" fill="white"/>
<path d="M34.076 238.818H35.6072V246.037C35.6072 246.69 35.478 247.248 35.2195 247.712C34.9643 248.176 34.6046 248.531 34.1406 248.776C33.6766 249.018 33.133 249.139 32.5099 249.139C31.9366 249.139 31.4212 249.035 30.9638 248.826C30.5097 248.617 30.1501 248.314 29.8849 247.916C29.6231 247.515 29.4922 247.028 29.4922 246.455H31.0185C31.0185 246.736 31.0831 246.98 31.2124 247.185C31.3449 247.391 31.5256 247.552 31.7543 247.668C31.9863 247.78 32.2514 247.837 32.5497 247.837C32.8745 247.837 33.1496 247.769 33.375 247.633C33.6037 247.494 33.7777 247.29 33.897 247.021C34.0163 246.753 34.076 246.425 34.076 246.037V238.818ZM40.3151 249.154C39.5627 249.154 38.9148 248.993 38.3712 248.672C37.831 248.347 37.4133 247.891 37.1184 247.305C36.8267 246.715 36.6809 246.024 36.6809 245.232C36.6809 244.449 36.8267 243.76 37.1184 243.163C37.4133 242.567 37.8243 242.101 38.3513 241.766C38.8816 241.432 39.5014 241.264 40.2107 241.264C40.6416 241.264 41.0592 241.335 41.4635 241.478C41.8679 241.621 42.2308 241.844 42.5523 242.149C42.8738 242.454 43.1274 242.85 43.313 243.337C43.4986 243.821 43.5914 244.41 43.5914 245.102V245.629H37.5211V244.516H42.1347C42.1347 244.125 42.0551 243.778 41.8961 243.477C41.737 243.172 41.5132 242.931 41.2249 242.756C40.9399 242.58 40.6051 242.492 40.2206 242.492C39.803 242.492 39.4384 242.595 39.1269 242.8C38.8186 243.003 38.58 243.268 38.411 243.596C38.2453 243.921 38.1624 244.274 38.1624 244.655V245.525C38.1624 246.035 38.2519 246.469 38.4309 246.827C38.6132 247.185 38.8667 247.459 39.1915 247.648C39.5163 247.833 39.8958 247.926 40.33 247.926C40.6117 247.926 40.8686 247.886 41.1006 247.807C41.3326 247.724 41.5331 247.601 41.7022 247.439C41.8712 247.277 42.0005 247.076 42.09 246.837L43.4969 247.091C43.3842 247.505 43.182 247.868 42.8904 248.18C42.602 248.488 42.2391 248.728 41.8016 248.901C41.3674 249.07 40.8719 249.154 40.3151 249.154ZM44.5407 249V241.364H45.9775V242.577H46.057C46.1962 242.166 46.4415 241.843 46.7928 241.607C47.1475 241.369 47.5485 241.249 47.996 241.249C48.0888 241.249 48.1981 241.253 48.3241 241.259C48.4533 241.266 48.5544 241.274 48.6273 241.284V242.706C48.5677 242.689 48.4616 242.671 48.3092 242.651C48.1567 242.628 48.0042 242.616 47.8518 242.616C47.5005 242.616 47.1872 242.691 46.9121 242.84C46.6404 242.986 46.4249 243.19 46.2658 243.452C46.1067 243.71 46.0272 244.005 46.0272 244.337V249H44.5407ZM52.2315 249.154C51.4791 249.154 50.8312 248.993 50.2876 248.672C49.7474 248.347 49.3297 247.891 49.0348 247.305C48.7431 246.715 48.5973 246.024 48.5973 245.232C48.5973 244.449 48.7431 243.76 49.0348 243.163C49.3297 242.567 49.7407 242.101 50.2677 241.766C50.798 241.432 51.4178 241.264 52.1271 241.264C52.558 241.264 52.9756 241.335 53.3799 241.478C53.7843 241.621 54.1472 241.844 54.4687 242.149C54.7902 242.454 55.0438 242.85 55.2294 243.337C55.415 243.821 55.5078 244.41 55.5078 245.102V245.629H49.4375V244.516H54.0511C54.0511 244.125 53.9716 243.778 53.8125 243.477C53.6534 243.172 53.4297 242.931 53.1413 242.756C52.8563 242.58 52.5215 242.492 52.137 242.492C51.7194 242.492 51.3548 242.595 51.0433 242.8C50.735 243.003 50.4964 243.268 50.3274 243.596C50.1617 243.921 50.0788 244.274 50.0788 244.655V245.525C50.0788 246.035 50.1683 246.469 50.3473 246.827C50.5296 247.185 50.7831 247.459 51.1079 247.648C51.4327 247.833 51.8122 247.926 52.2464 247.926C52.5281 247.926 52.785 247.886 53.017 247.807C53.249 247.724 53.4495 247.601 53.6186 247.439C53.7876 247.277 53.9169 247.076 54.0064 246.837L55.4133 247.091C55.3006 247.505 55.0984 247.868 54.8068 248.18C54.5184 248.488 54.1555 248.728 53.718 248.901C53.2838 249.07 52.7883 249.154 52.2315 249.154ZM56.4571 249V241.364H57.8839V242.607H57.9784C58.1375 242.186 58.3977 241.857 58.7589 241.622C59.1202 241.384 59.5527 241.264 60.0565 241.264C60.567 241.264 60.9945 241.384 61.3392 241.622C61.6872 241.861 61.9441 242.189 62.1098 242.607H62.1893C62.3716 242.199 62.6616 241.874 63.0594 241.632C63.4571 241.387 63.9311 241.264 64.4813 241.264C65.174 241.264 65.7391 241.481 66.1766 241.915C66.6174 242.35 66.8378 243.004 66.8378 243.879V249H65.3513V244.018C65.3513 243.501 65.2104 243.127 64.9287 242.895C64.647 242.663 64.3106 242.547 63.9195 242.547C63.4356 242.547 63.0594 242.696 62.7909 242.994C62.5224 243.289 62.3882 243.669 62.3882 244.133V249H60.9067V243.924C60.9067 243.51 60.7774 243.177 60.5189 242.925C60.2604 242.673 59.924 242.547 59.5097 242.547C59.2279 242.547 58.9678 242.621 58.7291 242.771C58.4938 242.916 58.3032 243.12 58.1574 243.382C58.0149 243.644 57.9436 243.947 57.9436 244.292V249H56.4571ZM68.1301 249V241.364H69.6167V249H68.1301ZM68.8809 240.185C68.6223 240.185 68.4003 240.099 68.2147 239.927C68.0324 239.751 67.9412 239.542 67.9412 239.3C67.9412 239.055 68.0324 238.846 68.2147 238.674C68.4003 238.498 68.6223 238.411 68.8809 238.411C69.1394 238.411 69.3598 238.498 69.5421 238.674C69.7277 238.846 69.8205 239.055 69.8205 239.3C69.8205 239.542 69.7277 239.751 69.5421 239.927C69.3598 240.099 69.1394 240.185 68.8809 240.185ZM73.1388 249.169C72.6549 249.169 72.2174 249.08 71.8263 248.901C71.4352 248.718 71.1253 248.455 70.8966 248.11C70.6712 247.765 70.5585 247.343 70.5585 246.842C70.5585 246.411 70.6414 246.057 70.8071 245.778C70.9728 245.5 71.1965 245.28 71.4783 245.117C71.76 244.955 72.0749 244.832 72.4229 244.749C72.7709 244.666 73.1255 244.603 73.4868 244.56C73.9442 244.507 74.3154 244.464 74.6004 244.431C74.8855 244.395 75.0926 244.337 75.2219 244.257C75.3511 244.178 75.4158 244.048 75.4158 243.869V243.835C75.4158 243.4 75.2931 243.064 75.0479 242.825C74.8059 242.587 74.4446 242.467 73.9641 242.467C73.4636 242.467 73.0692 242.578 72.7808 242.8C72.4958 243.019 72.2986 243.263 72.1892 243.531L70.7922 243.213C70.9579 242.749 71.1999 242.375 71.518 242.089C71.8395 241.801 72.2091 241.592 72.6267 241.463C73.0443 241.33 73.4835 241.264 73.9442 241.264C74.2491 241.264 74.5723 241.301 74.9136 241.374C75.2583 241.443 75.5798 241.572 75.8781 241.761C76.1797 241.95 76.4267 242.22 76.6189 242.572C76.8111 242.92 76.9072 243.372 76.9072 243.929V249H75.4555V247.956H75.3959C75.2998 248.148 75.1556 248.337 74.9634 248.523C74.7711 248.708 74.5242 248.862 74.2226 248.985C73.921 249.108 73.5597 249.169 73.1388 249.169ZM73.4619 247.976C73.8729 247.976 74.2242 247.895 74.5159 247.732C74.8109 247.57 75.0346 247.358 75.1871 247.096C75.3428 246.831 75.4207 246.547 75.4207 246.246V245.261C75.3677 245.314 75.265 245.364 75.1125 245.411C74.9634 245.454 74.7927 245.492 74.6004 245.525C74.4082 245.555 74.2209 245.583 74.0386 245.609C73.8563 245.633 73.7039 245.652 73.5812 245.669C73.2929 245.705 73.0294 245.767 72.7908 245.853C72.5554 245.939 72.3665 246.063 72.224 246.226C72.0848 246.385 72.0152 246.597 72.0152 246.862C72.0152 247.23 72.1511 247.509 72.4229 247.697C72.6946 247.883 73.041 247.976 73.4619 247.976ZM79.6737 244.466V249H78.1872V238.818H79.6538V242.607H79.7483C79.9272 242.196 80.2007 241.869 80.5686 241.627C80.9365 241.385 81.4171 241.264 82.0103 241.264C82.534 241.264 82.9914 241.372 83.3825 241.587C83.7769 241.803 84.0818 242.124 84.2973 242.552C84.516 242.976 84.6254 243.506 84.6254 244.143V249H83.1389V244.322C83.1389 243.762 82.9947 243.327 82.7064 243.019C82.418 242.708 82.017 242.552 81.5032 242.552C81.1519 242.552 80.837 242.626 80.5586 242.776C80.2835 242.925 80.0664 243.143 79.9073 243.432C79.7516 243.717 79.6737 244.062 79.6737 244.466Z" fill="#0E0E0E"/>
<path d="M124.75 134H122.057V125.273H124.869C125.716 125.273 126.44 125.447 127.043 125.797C127.645 126.143 128.107 126.642 128.428 127.293C128.749 127.94 128.909 128.716 128.909 129.619C128.909 130.528 128.747 131.311 128.423 131.967C128.099 132.621 127.628 133.124 127.009 133.476C126.389 133.825 125.636 134 124.75 134ZM123.114 133.062H124.682C125.403 133.062 126.001 132.923 126.476 132.645C126.95 132.366 127.304 131.97 127.537 131.456C127.77 130.942 127.886 130.33 127.886 129.619C127.886 128.915 127.771 128.308 127.541 127.8C127.311 127.288 126.967 126.896 126.51 126.624C126.053 126.348 125.483 126.21 124.801 126.21H123.114V133.062ZM130.545 134V127.455H131.551V134H130.545ZM131.057 126.364C130.861 126.364 130.692 126.297 130.55 126.163C130.411 126.03 130.341 125.869 130.341 125.682C130.341 125.494 130.411 125.334 130.55 125.2C130.692 125.067 130.861 125 131.057 125C131.253 125 131.42 125.067 131.56 125.2C131.702 125.334 131.773 125.494 131.773 125.682C131.773 125.869 131.702 126.03 131.56 126.163C131.42 126.297 131.253 126.364 131.057 126.364ZM134.399 130.062V134H133.393V127.455H134.365V128.477H134.45C134.603 128.145 134.836 127.878 135.149 127.676C135.461 127.472 135.865 127.369 136.359 127.369C136.802 127.369 137.19 127.46 137.522 127.642C137.855 127.821 138.113 128.094 138.298 128.46C138.483 128.824 138.575 129.284 138.575 129.841V134H137.569V129.909C137.569 129.395 137.436 128.994 137.169 128.707C136.902 128.418 136.535 128.273 136.069 128.273C135.748 128.273 135.461 128.342 135.208 128.482C134.958 128.621 134.761 128.824 134.616 129.091C134.471 129.358 134.399 129.682 134.399 130.062ZM144.793 130.062V134H143.788V127.455H144.759V128.477H144.844C144.998 128.145 145.231 127.878 145.543 127.676C145.856 127.472 146.259 127.369 146.754 127.369C147.197 127.369 147.585 127.46 147.917 127.642C148.249 127.821 148.508 128.094 148.692 128.46C148.877 128.824 148.969 129.284 148.969 129.841V134H147.964V129.909C147.964 129.395 147.83 128.994 147.563 128.707C147.296 128.418 146.93 128.273 146.464 128.273C146.143 128.273 145.856 128.342 145.603 128.482C145.353 128.621 145.156 128.824 145.011 129.091C144.866 129.358 144.793 129.682 144.793 130.062ZM153.466 134.136C152.875 134.136 152.357 133.996 151.911 133.714C151.468 133.433 151.121 133.04 150.871 132.534C150.624 132.028 150.5 131.437 150.5 130.761C150.5 130.08 150.624 129.484 150.871 128.976C151.121 128.467 151.468 128.072 151.911 127.791C152.357 127.51 152.875 127.369 153.466 127.369C154.057 127.369 154.574 127.51 155.017 127.791C155.463 128.072 155.81 128.467 156.057 128.976C156.307 129.484 156.432 130.08 156.432 130.761C156.432 131.437 156.307 132.028 156.057 132.534C155.81 133.04 155.463 133.433 155.017 133.714C154.574 133.996 154.057 134.136 153.466 134.136ZM153.466 133.233C153.915 133.233 154.284 133.118 154.574 132.888C154.864 132.658 155.078 132.355 155.218 131.98C155.357 131.605 155.426 131.199 155.426 130.761C155.426 130.324 155.357 129.916 155.218 129.538C155.078 129.161 154.864 128.855 154.574 128.622C154.284 128.389 153.915 128.273 153.466 128.273C153.017 128.273 152.648 128.389 152.358 128.622C152.069 128.855 151.854 129.161 151.715 129.538C151.576 129.916 151.506 130.324 151.506 130.761C151.506 131.199 151.576 131.605 151.715 131.98C151.854 132.355 152.069 132.658 152.358 132.888C152.648 133.118 153.017 133.233 153.466 133.233ZM160.814 127.455V128.307H157.422V127.455H160.814ZM158.411 125.886H159.416V132.125C159.416 132.409 159.457 132.622 159.54 132.764C159.625 132.903 159.733 132.997 159.864 133.045C159.997 133.091 160.138 133.114 160.286 133.114C160.396 133.114 160.487 133.108 160.558 133.097C160.629 133.082 160.686 133.071 160.729 133.062L160.933 133.966C160.865 133.991 160.77 134.017 160.648 134.043C160.526 134.071 160.371 134.085 160.183 134.085C159.899 134.085 159.621 134.024 159.348 133.902C159.078 133.78 158.854 133.594 158.675 133.344C158.499 133.094 158.411 132.778 158.411 132.398V125.886ZM165.001 134.136C164.37 134.136 163.826 133.997 163.369 133.719C162.914 133.438 162.563 133.045 162.316 132.543C162.072 132.037 161.95 131.449 161.95 130.778C161.95 130.108 162.072 129.517 162.316 129.006C162.563 128.491 162.907 128.091 163.347 127.804C163.79 127.514 164.308 127.369 164.898 127.369C165.239 127.369 165.576 127.426 165.908 127.54C166.241 127.653 166.543 127.838 166.816 128.094C167.089 128.347 167.306 128.682 167.468 129.099C167.63 129.517 167.711 130.031 167.711 130.642V131.068H162.665V130.199H166.688C166.688 129.83 166.614 129.5 166.467 129.21C166.322 128.92 166.114 128.692 165.844 128.524C165.577 128.357 165.262 128.273 164.898 128.273C164.498 128.273 164.151 128.372 163.859 128.571C163.569 128.767 163.346 129.023 163.19 129.338C163.033 129.653 162.955 129.991 162.955 130.352V130.932C162.955 131.426 163.04 131.845 163.211 132.189C163.384 132.53 163.624 132.79 163.931 132.969C164.238 133.145 164.594 133.233 165.001 133.233C165.265 133.233 165.504 133.196 165.717 133.122C165.933 133.045 166.119 132.932 166.275 132.781C166.431 132.628 166.552 132.437 166.637 132.21L167.609 132.483C167.506 132.812 167.335 133.102 167.093 133.352C166.852 133.599 166.553 133.793 166.198 133.932C165.843 134.068 165.444 134.136 165.001 134.136ZM172.752 134V125.273H173.758V128.494H173.843C173.917 128.381 174.019 128.236 174.15 128.06C174.283 127.881 174.474 127.722 174.721 127.582C174.971 127.44 175.309 127.369 175.735 127.369C176.286 127.369 176.772 127.507 177.192 127.783C177.613 128.058 177.941 128.449 178.177 128.955C178.413 129.46 178.531 130.057 178.531 130.744C178.531 131.438 178.413 132.038 178.177 132.547C177.941 133.053 177.614 133.445 177.197 133.723C176.779 133.999 176.298 134.136 175.752 134.136C175.332 134.136 174.995 134.067 174.742 133.928C174.489 133.786 174.295 133.625 174.158 133.446C174.022 133.264 173.917 133.114 173.843 132.994H173.724V134H172.752ZM173.741 130.727C173.741 131.222 173.813 131.658 173.958 132.036C174.103 132.411 174.315 132.705 174.593 132.918C174.871 133.128 175.212 133.233 175.616 133.233C176.036 133.233 176.387 133.122 176.668 132.901C176.952 132.676 177.165 132.375 177.308 131.997C177.452 131.616 177.525 131.193 177.525 130.727C177.525 130.267 177.454 129.852 177.312 129.483C177.173 129.111 176.961 128.817 176.677 128.601C176.396 128.382 176.042 128.273 175.616 128.273C175.207 128.273 174.863 128.376 174.585 128.584C174.306 128.788 174.096 129.075 173.954 129.445C173.812 129.811 173.741 130.239 173.741 130.727ZM181.075 125.273V134H180.069V125.273H181.075ZM185.661 134.136C185.03 134.136 184.486 133.997 184.029 133.719C183.574 133.438 183.223 133.045 182.976 132.543C182.732 132.037 182.61 131.449 182.61 130.778C182.61 130.108 182.732 129.517 182.976 129.006C183.223 128.491 183.567 128.091 184.007 127.804C184.451 127.514 184.968 127.369 185.559 127.369C185.9 127.369 186.236 127.426 186.569 127.54C186.901 127.653 187.203 127.838 187.476 128.094C187.749 128.347 187.966 128.682 188.128 129.099C188.29 129.517 188.371 130.031 188.371 130.642V131.068H183.326V130.199H187.348C187.348 129.83 187.275 129.5 187.127 129.21C186.982 128.92 186.775 128.692 186.505 128.524C186.238 128.357 185.922 128.273 185.559 128.273C185.158 128.273 184.811 128.372 184.519 128.571C184.229 128.767 184.006 129.023 183.85 129.338C183.694 129.653 183.615 129.991 183.615 130.352V130.932C183.615 131.426 183.701 131.845 183.871 132.189C184.044 132.53 184.284 132.79 184.591 132.969C184.898 133.145 185.255 133.233 185.661 133.233C185.925 133.233 186.164 133.196 186.377 133.122C186.593 133.045 186.779 132.932 186.935 132.781C187.091 132.628 187.212 132.437 187.297 132.21L188.269 132.483C188.167 132.812 187.995 133.102 187.753 133.352C187.512 133.599 187.213 133.793 186.858 133.932C186.503 134.068 186.104 134.136 185.661 134.136ZM195.054 127.455L192.634 134H191.611L189.19 127.455H190.281L192.088 132.67H192.156L193.963 127.455H195.054ZM202.415 134.136C201.825 134.136 201.306 133.996 200.86 133.714C200.417 133.433 200.07 133.04 199.82 132.534C199.573 132.028 199.45 131.437 199.45 130.761C199.45 130.08 199.573 129.484 199.82 128.976C200.07 128.467 200.417 128.072 200.86 127.791C201.306 127.51 201.825 127.369 202.415 127.369C203.006 127.369 203.523 127.51 203.967 127.791C204.413 128.072 204.759 128.467 205.006 128.976C205.256 129.484 205.381 130.08 205.381 130.761C205.381 131.437 205.256 132.028 205.006 132.534C204.759 133.04 204.413 133.433 203.967 133.714C203.523 133.996 203.006 134.136 202.415 134.136ZM202.415 133.233C202.864 133.233 203.234 133.118 203.523 132.888C203.813 132.658 204.028 132.355 204.167 131.98C204.306 131.605 204.376 131.199 204.376 130.761C204.376 130.324 204.306 129.916 204.167 129.538C204.028 129.161 203.813 128.855 203.523 128.622C203.234 128.389 202.864 128.273 202.415 128.273C201.967 128.273 201.597 128.389 201.308 128.622C201.018 128.855 200.803 129.161 200.664 129.538C200.525 129.916 200.455 130.324 200.455 130.761C200.455 131.199 200.525 131.605 200.664 131.98C200.803 132.355 201.018 132.658 201.308 132.888C201.597 133.118 201.967 133.233 202.415 133.233ZM206.917 136.455V127.455H207.888V128.494H208.007C208.081 128.381 208.184 128.236 208.314 128.06C208.448 127.881 208.638 127.722 208.885 127.582C209.135 127.44 209.473 127.369 209.9 127.369C210.451 127.369 210.936 127.507 211.357 127.783C211.777 128.058 212.105 128.449 212.341 128.955C212.577 129.46 212.695 130.057 212.695 130.744C212.695 131.438 212.577 132.038 212.341 132.547C212.105 133.053 211.779 133.445 211.361 133.723C210.944 133.999 210.462 134.136 209.917 134.136C209.496 134.136 209.159 134.067 208.907 133.928C208.654 133.786 208.459 133.625 208.323 133.446C208.186 133.264 208.081 133.114 208.007 132.994H207.922V136.455H206.917ZM207.905 130.727C207.905 131.222 207.978 131.658 208.123 132.036C208.267 132.411 208.479 132.705 208.757 132.918C209.036 133.128 209.377 133.233 209.78 133.233C210.201 133.233 210.551 133.122 210.833 132.901C211.117 132.676 211.33 132.375 211.472 131.997C211.617 131.616 211.689 131.193 211.689 130.727C211.689 130.267 211.618 129.852 211.476 129.483C211.337 129.111 211.125 128.817 210.841 128.601C210.56 128.382 210.206 128.273 209.78 128.273C209.371 128.273 209.027 128.376 208.749 128.584C208.471 128.788 208.26 129.075 208.118 129.445C207.976 129.811 207.905 130.239 207.905 130.727ZM214.229 134V127.455H215.201V128.443H215.269C215.388 128.119 215.604 127.857 215.917 127.655C216.229 127.453 216.581 127.352 216.973 127.352C217.047 127.352 217.14 127.354 217.25 127.357C217.361 127.359 217.445 127.364 217.502 127.369V128.392C217.468 128.384 217.39 128.371 217.267 128.354C217.148 128.334 217.022 128.324 216.888 128.324C216.57 128.324 216.286 128.391 216.036 128.524C215.789 128.655 215.593 128.837 215.448 129.07C215.306 129.3 215.235 129.562 215.235 129.858V134H214.229ZM221.239 134.136C220.608 134.136 220.064 133.997 219.607 133.719C219.152 133.438 218.801 133.045 218.554 132.543C218.31 132.037 218.188 131.449 218.188 130.778C218.188 130.108 218.31 129.517 218.554 129.006C218.801 128.491 219.145 128.091 219.586 127.804C220.029 127.514 220.546 127.369 221.137 127.369C221.478 127.369 221.814 127.426 222.147 127.54C222.479 127.653 222.782 127.838 223.054 128.094C223.327 128.347 223.544 128.682 223.706 129.099C223.868 129.517 223.949 130.031 223.949 130.642V131.068H218.904V130.199H222.926C222.926 129.83 222.853 129.5 222.705 129.21C222.56 128.92 222.353 128.692 222.083 128.524C221.816 128.357 221.5 128.273 221.137 128.273C220.736 128.273 220.39 128.372 220.097 128.571C219.807 128.767 219.584 129.023 219.428 129.338C219.272 129.653 219.194 129.991 219.194 130.352V130.932C219.194 131.426 219.279 131.845 219.449 132.189C219.623 132.53 219.863 132.79 220.169 132.969C220.476 133.145 220.833 133.233 221.239 133.233C221.503 133.233 221.742 133.196 221.955 133.122C222.171 133.045 222.357 132.932 222.513 132.781C222.669 132.628 222.79 132.437 222.875 132.21L223.847 132.483C223.745 132.812 223.573 133.102 223.331 133.352C223.09 133.599 222.792 133.793 222.436 133.932C222.081 134.068 221.682 134.136 221.239 134.136ZM228.326 127.455V128.307H224.934V127.455H228.326ZM225.922 125.886H226.928V132.125C226.928 132.409 226.969 132.622 227.051 132.764C227.137 132.903 227.245 132.997 227.375 133.045C227.509 133.091 227.65 133.114 227.797 133.114C227.908 133.114 227.999 133.108 228.07 133.097C228.141 133.082 228.198 133.071 228.24 133.062L228.445 133.966C228.377 133.991 228.282 134.017 228.159 134.043C228.037 134.071 227.882 134.085 227.695 134.085C227.411 134.085 227.132 134.024 226.86 133.902C226.59 133.78 226.365 133.594 226.186 133.344C226.01 133.094 225.922 132.778 225.922 132.398V125.886ZM232.685 127.455V128.307H229.293V127.455H232.685ZM230.282 125.886H231.287V132.125C231.287 132.409 231.328 132.622 231.411 132.764C231.496 132.903 231.604 132.997 231.735 133.045C231.868 133.091 232.009 133.114 232.157 133.114C232.267 133.114 232.358 133.108 232.429 133.097C232.5 133.082 232.557 133.071 232.6 133.062L232.804 133.966C232.736 133.991 232.641 134.017 232.519 134.043C232.397 134.071 232.242 134.085 232.054 134.085C231.77 134.085 231.492 134.024 231.219 133.902C230.949 133.78 230.725 133.594 230.546 133.344C230.37 133.094 230.282 132.778 230.282 132.398V125.886ZM236.872 134.136C236.241 134.136 235.697 133.997 235.24 133.719C234.785 133.438 234.434 133.045 234.187 132.543C233.943 132.037 233.821 131.449 233.821 130.778C233.821 130.108 233.943 129.517 234.187 129.006C234.434 128.491 234.778 128.091 235.218 127.804C235.662 127.514 236.179 127.369 236.77 127.369C237.11 127.369 237.447 127.426 237.779 127.54C238.112 127.653 238.414 127.838 238.687 128.094C238.96 128.347 239.177 128.682 239.339 129.099C239.501 129.517 239.582 130.031 239.582 130.642V131.068H234.537V130.199H238.559C238.559 129.83 238.485 129.5 238.338 129.21C238.193 128.92 237.985 128.692 237.716 128.524C237.449 128.357 237.133 128.273 236.77 128.273C236.369 128.273 236.022 128.372 235.73 128.571C235.44 128.767 235.217 129.023 235.061 129.338C234.904 129.653 234.826 129.991 234.826 130.352V130.932C234.826 131.426 234.912 131.845 235.082 132.189C235.255 132.53 235.495 132.79 235.802 132.969C236.109 133.145 236.466 133.233 236.872 133.233C237.136 133.233 237.375 133.196 237.588 133.122C237.804 133.045 237.99 132.932 238.146 132.781C238.302 132.628 238.423 132.437 238.508 132.21L239.48 132.483C239.377 132.812 239.206 133.102 238.964 133.352C238.723 133.599 238.424 133.793 238.069 133.932C237.714 134.068 237.315 134.136 236.872 134.136ZM243.958 127.455V128.307H240.566V127.455H243.958ZM241.555 125.886H242.561V132.125C242.561 132.409 242.602 132.622 242.684 132.764C242.77 132.903 242.877 132.997 243.008 133.045C243.142 133.091 243.282 133.114 243.43 133.114C243.541 133.114 243.632 133.108 243.703 133.097C243.774 133.082 243.831 133.071 243.873 133.062L244.078 133.966C244.01 133.991 243.914 134.017 243.792 134.043C243.67 134.071 243.515 134.085 243.328 134.085C243.044 134.085 242.765 134.024 242.493 133.902C242.223 133.78 241.998 133.594 241.819 133.344C241.643 133.094 241.555 132.778 241.555 132.398V125.886Z" fill="#6B6B6B"/>
<path d="M142.83 495.455C142.778 495.023 142.571 494.688 142.207 494.449C141.844 494.21 141.398 494.091 140.869 494.091C140.483 494.091 140.145 494.153 139.855 494.278C139.568 494.403 139.344 494.575 139.182 494.794C139.023 495.013 138.943 495.261 138.943 495.54C138.943 495.773 138.999 495.973 139.109 496.141C139.223 496.305 139.368 496.443 139.544 496.554C139.72 496.662 139.905 496.751 140.098 496.822C140.291 496.891 140.469 496.946 140.631 496.989L141.517 497.227C141.744 497.287 141.997 497.369 142.276 497.474C142.557 497.58 142.825 497.723 143.081 497.905C143.339 498.084 143.553 498.314 143.72 498.595C143.888 498.876 143.972 499.222 143.972 499.631C143.972 500.102 143.848 500.528 143.601 500.909C143.357 501.29 142.999 501.592 142.527 501.817C142.058 502.041 141.489 502.153 140.818 502.153C140.193 502.153 139.652 502.053 139.195 501.851C138.74 501.649 138.382 501.368 138.121 501.007C137.862 500.646 137.716 500.227 137.682 499.75H138.773C138.801 500.08 138.912 500.352 139.105 500.568C139.301 500.781 139.548 500.94 139.847 501.045C140.148 501.148 140.472 501.199 140.818 501.199C141.222 501.199 141.584 501.134 141.905 501.003C142.226 500.869 142.48 500.685 142.668 500.449C142.855 500.21 142.949 499.932 142.949 499.614C142.949 499.324 142.868 499.088 142.706 498.906C142.544 498.724 142.331 498.577 142.067 498.463C141.803 498.349 141.517 498.25 141.21 498.165L140.136 497.858C139.455 497.662 138.915 497.382 138.517 497.018C138.119 496.655 137.92 496.179 137.92 495.591C137.92 495.102 138.053 494.676 138.317 494.312C138.584 493.946 138.942 493.662 139.391 493.46C139.842 493.256 140.347 493.153 140.903 493.153C141.466 493.153 141.966 493.254 142.403 493.456C142.841 493.655 143.188 493.928 143.443 494.274C143.702 494.621 143.838 495.014 143.852 495.455H142.83ZM148.317 502.136C147.686 502.136 147.142 501.997 146.685 501.719C146.23 501.438 145.88 501.045 145.632 500.543C145.388 500.037 145.266 499.449 145.266 498.778C145.266 498.108 145.388 497.517 145.632 497.006C145.88 496.491 146.223 496.091 146.664 495.804C147.107 495.514 147.624 495.369 148.215 495.369C148.556 495.369 148.892 495.426 149.225 495.54C149.557 495.653 149.86 495.838 150.132 496.094C150.405 496.347 150.623 496.682 150.784 497.099C150.946 497.517 151.027 498.031 151.027 498.642V499.068H145.982V498.199H150.005C150.005 497.83 149.931 497.5 149.783 497.21C149.638 496.92 149.431 496.692 149.161 496.524C148.894 496.357 148.578 496.273 148.215 496.273C147.814 496.273 147.468 496.372 147.175 496.571C146.885 496.767 146.662 497.023 146.506 497.338C146.35 497.653 146.272 497.991 146.272 498.352V498.932C146.272 499.426 146.357 499.845 146.527 500.189C146.701 500.53 146.941 500.79 147.248 500.969C147.554 501.145 147.911 501.233 148.317 501.233C148.581 501.233 148.82 501.196 149.033 501.122C149.249 501.045 149.435 500.932 149.591 500.781C149.748 500.628 149.868 500.437 149.953 500.21L150.925 500.483C150.823 500.812 150.651 501.102 150.409 501.352C150.168 501.599 149.87 501.793 149.515 501.932C149.159 502.068 148.76 502.136 148.317 502.136ZM160.569 496.92L159.665 497.176C159.608 497.026 159.525 496.879 159.414 496.737C159.306 496.592 159.158 496.473 158.971 496.379C158.783 496.286 158.543 496.239 158.25 496.239C157.85 496.239 157.516 496.331 157.249 496.516C156.985 496.697 156.853 496.929 156.853 497.21C156.853 497.46 156.944 497.658 157.125 497.803C157.307 497.947 157.591 498.068 157.978 498.165L158.949 498.403C159.534 498.545 159.971 498.763 160.257 499.055C160.544 499.345 160.688 499.719 160.688 500.176C160.688 500.551 160.58 500.886 160.364 501.182C160.151 501.477 159.853 501.71 159.469 501.881C159.086 502.051 158.64 502.136 158.131 502.136C157.463 502.136 156.911 501.991 156.473 501.702C156.036 501.412 155.759 500.989 155.642 500.432L156.597 500.193C156.688 500.545 156.86 500.81 157.113 500.986C157.368 501.162 157.702 501.25 158.114 501.25C158.583 501.25 158.955 501.151 159.23 500.952C159.509 500.75 159.648 500.509 159.648 500.227C159.648 500 159.569 499.81 159.409 499.656C159.25 499.5 159.006 499.384 158.676 499.307L157.586 499.051C156.986 498.909 156.546 498.689 156.265 498.391C155.986 498.089 155.847 497.713 155.847 497.261C155.847 496.892 155.951 496.565 156.158 496.281C156.368 495.997 156.654 495.774 157.015 495.612C157.378 495.45 157.79 495.369 158.25 495.369C158.898 495.369 159.407 495.511 159.776 495.795C160.148 496.08 160.412 496.455 160.569 496.92ZM162.202 504.455V495.455H163.173V496.494H163.293C163.366 496.381 163.469 496.236 163.599 496.06C163.733 495.881 163.923 495.722 164.17 495.582C164.42 495.44 164.759 495.369 165.185 495.369C165.736 495.369 166.222 495.507 166.642 495.783C167.063 496.058 167.391 496.449 167.626 496.955C167.862 497.46 167.98 498.057 167.98 498.744C167.98 499.438 167.862 500.038 167.626 500.547C167.391 501.053 167.064 501.445 166.646 501.723C166.229 501.999 165.747 502.136 165.202 502.136C164.781 502.136 164.445 502.067 164.192 501.928C163.939 501.786 163.744 501.625 163.608 501.446C163.472 501.264 163.366 501.114 163.293 500.994H163.207V504.455H162.202ZM163.19 498.727C163.19 499.222 163.263 499.658 163.408 500.036C163.553 500.411 163.764 500.705 164.043 500.918C164.321 501.128 164.662 501.233 165.065 501.233C165.486 501.233 165.837 501.122 166.118 500.901C166.402 500.676 166.615 500.375 166.757 499.997C166.902 499.616 166.974 499.193 166.974 498.727C166.974 498.267 166.903 497.852 166.761 497.483C166.622 497.111 166.411 496.817 166.126 496.601C165.845 496.382 165.491 496.273 165.065 496.273C164.656 496.273 164.313 496.376 164.034 496.584C163.756 496.788 163.545 497.075 163.403 497.445C163.261 497.811 163.19 498.239 163.19 498.727ZM169.514 502V495.455H170.52V502H169.514ZM170.026 494.364C169.83 494.364 169.661 494.297 169.518 494.163C169.379 494.03 169.31 493.869 169.31 493.682C169.31 493.494 169.379 493.334 169.518 493.2C169.661 493.067 169.83 493 170.026 493C170.222 493 170.389 493.067 170.528 493.2C170.67 493.334 170.741 493.494 170.741 493.682C170.741 493.869 170.67 494.03 170.528 494.163C170.389 494.297 170.222 494.364 170.026 494.364ZM173.368 493.273V502H172.362V493.273H173.368ZM176.215 493.273V502H175.21V493.273H176.215ZM180.801 502.136C180.171 502.136 179.627 501.997 179.169 501.719C178.715 501.438 178.364 501.045 178.117 500.543C177.873 500.037 177.75 499.449 177.75 498.778C177.75 498.108 177.873 497.517 178.117 497.006C178.364 496.491 178.708 496.091 179.148 495.804C179.591 495.514 180.108 495.369 180.699 495.369C181.04 495.369 181.377 495.426 181.709 495.54C182.042 495.653 182.344 495.838 182.617 496.094C182.89 496.347 183.107 496.682 183.269 497.099C183.431 497.517 183.512 498.031 183.512 498.642V499.068H178.466V498.199H182.489C182.489 497.83 182.415 497.5 182.267 497.21C182.123 496.92 181.915 496.692 181.645 496.524C181.378 496.357 181.063 496.273 180.699 496.273C180.299 496.273 179.952 496.372 179.659 496.571C179.37 496.767 179.147 497.023 178.99 497.338C178.834 497.653 178.756 497.991 178.756 498.352V498.932C178.756 499.426 178.841 499.845 179.012 500.189C179.185 500.53 179.425 500.79 179.732 500.969C180.039 501.145 180.395 501.233 180.801 501.233C181.066 501.233 181.304 501.196 181.517 501.122C181.733 501.045 181.919 500.932 182.076 500.781C182.232 500.628 182.353 500.437 182.438 500.21L183.409 500.483C183.307 500.812 183.135 501.102 182.894 501.352C182.652 501.599 182.354 501.793 181.999 501.932C181.644 502.068 181.245 502.136 180.801 502.136ZM185.042 502V495.455H186.013V496.443H186.081C186.201 496.119 186.417 495.857 186.729 495.655C187.042 495.453 187.394 495.352 187.786 495.352C187.86 495.352 187.952 495.354 188.063 495.357C188.174 495.359 188.257 495.364 188.314 495.369V496.392C188.28 496.384 188.202 496.371 188.08 496.354C187.961 496.334 187.834 496.324 187.701 496.324C187.382 496.324 187.098 496.391 186.848 496.524C186.601 496.655 186.405 496.837 186.26 497.07C186.118 497.3 186.047 497.562 186.047 497.858V502H185.042ZM189.506 504.455V495.455H190.478V496.494H190.597C190.671 496.381 190.773 496.236 190.904 496.06C191.038 495.881 191.228 495.722 191.475 495.582C191.725 495.44 192.063 495.369 192.489 495.369C193.04 495.369 193.526 495.507 193.947 495.783C194.367 496.058 194.695 496.449 194.931 496.955C195.167 497.46 195.285 498.057 195.285 498.744C195.285 499.438 195.167 500.038 194.931 500.547C194.695 501.053 194.369 501.445 193.951 501.723C193.533 501.999 193.052 502.136 192.506 502.136C192.086 502.136 191.749 502.067 191.496 501.928C191.244 501.786 191.049 501.625 190.913 501.446C190.776 501.264 190.671 501.114 190.597 500.994H190.512V504.455H189.506ZM190.495 498.727C190.495 499.222 190.567 499.658 190.712 500.036C190.857 500.411 191.069 500.705 191.347 500.918C191.626 501.128 191.967 501.233 192.37 501.233C192.79 501.233 193.141 501.122 193.423 500.901C193.707 500.676 193.92 500.375 194.062 499.997C194.207 499.616 194.279 499.193 194.279 498.727C194.279 498.267 194.208 497.852 194.066 497.483C193.927 497.111 193.715 496.817 193.431 496.601C193.15 496.382 192.796 496.273 192.37 496.273C191.961 496.273 191.617 496.376 191.339 496.584C191.06 496.788 190.85 497.075 190.708 497.445C190.566 497.811 190.495 498.239 190.495 498.727ZM196.819 502V495.455H197.79V496.443H197.859C197.978 496.119 198.194 495.857 198.506 495.655C198.819 495.453 199.171 495.352 199.563 495.352C199.637 495.352 199.729 495.354 199.84 495.357C199.951 495.359 200.035 495.364 200.092 495.369V496.392C200.058 496.384 199.979 496.371 199.857 496.354C199.738 496.334 199.612 496.324 199.478 496.324C199.16 496.324 198.876 496.391 198.626 496.524C198.379 496.655 198.183 496.837 198.038 497.07C197.896 497.3 197.825 497.562 197.825 497.858V502H196.819ZM203.744 502.136C203.153 502.136 202.634 501.996 202.188 501.714C201.745 501.433 201.398 501.04 201.148 500.534C200.901 500.028 200.778 499.437 200.778 498.761C200.778 498.08 200.901 497.484 201.148 496.976C201.398 496.467 201.745 496.072 202.188 495.791C202.634 495.51 203.153 495.369 203.744 495.369C204.335 495.369 204.852 495.51 205.295 495.791C205.741 496.072 206.087 496.467 206.335 496.976C206.585 497.484 206.71 498.08 206.71 498.761C206.71 499.437 206.585 500.028 206.335 500.534C206.087 501.04 205.741 501.433 205.295 501.714C204.852 501.996 204.335 502.136 203.744 502.136ZM203.744 501.233C204.192 501.233 204.562 501.118 204.852 500.888C205.141 500.658 205.356 500.355 205.495 499.98C205.634 499.605 205.704 499.199 205.704 498.761C205.704 498.324 205.634 497.916 205.495 497.538C205.356 497.161 205.141 496.855 204.852 496.622C204.562 496.389 204.192 496.273 203.744 496.273C203.295 496.273 202.925 496.389 202.636 496.622C202.346 496.855 202.131 497.161 201.992 497.538C201.853 497.916 201.783 498.324 201.783 498.761C201.783 499.199 201.853 499.605 201.992 499.98C202.131 500.355 202.346 500.658 202.636 500.888C202.925 501.118 203.295 501.233 203.744 501.233ZM211.159 495.455V496.307H207.631V495.455H211.159ZM208.688 502V494.551C208.688 494.176 208.776 493.864 208.952 493.614C209.128 493.364 209.357 493.176 209.638 493.051C209.919 492.926 210.216 492.864 210.529 492.864C210.776 492.864 210.978 492.884 211.134 492.923C211.29 492.963 211.407 493 211.483 493.034L211.194 493.903C211.142 493.886 211.071 493.865 210.98 493.839C210.892 493.814 210.776 493.801 210.631 493.801C210.299 493.801 210.059 493.885 209.911 494.053C209.766 494.22 209.694 494.466 209.694 494.79V502H208.688ZM212.569 502V495.455H213.575V502H212.569ZM213.08 494.364C212.884 494.364 212.715 494.297 212.573 494.163C212.434 494.03 212.364 493.869 212.364 493.682C212.364 493.494 212.434 493.334 212.573 493.2C212.715 493.067 212.884 493 213.08 493C213.276 493 213.444 493.067 213.583 493.2C213.725 493.334 213.796 493.494 213.796 493.682C213.796 493.869 213.725 494.03 213.583 494.163C213.444 494.297 213.276 494.364 213.08 494.364ZM216.422 493.273V502H215.417V493.273H216.422Z" fill="#6B6B6B"/>
<path d="M36.9773 220.273V229H35.9545L31.1989 222.148H31.1136V229H30.0568V220.273H31.0795L35.8523 227.142H35.9375V220.273H36.9773ZM40.8817 229.153C40.467 229.153 40.0906 229.075 39.7525 228.919C39.4144 228.76 39.146 228.531 38.9471 228.233C38.7482 227.932 38.6488 227.568 38.6488 227.142C38.6488 226.767 38.7227 226.463 38.8704 226.23C39.0181 225.994 39.2156 225.81 39.4627 225.676C39.7099 225.543 39.9826 225.443 40.2809 225.378C40.582 225.31 40.8846 225.256 41.1886 225.216C41.5863 225.165 41.9087 225.126 42.1559 225.101C42.4059 225.072 42.5877 225.026 42.7013 224.96C42.8178 224.895 42.8761 224.781 42.8761 224.619V224.585C42.8761 224.165 42.761 223.838 42.5309 223.605C42.3036 223.372 41.9585 223.256 41.4954 223.256C41.0153 223.256 40.6388 223.361 40.3661 223.571C40.0934 223.781 39.9016 224.006 39.7908 224.244L38.8363 223.903C39.0067 223.506 39.234 223.196 39.5181 222.974C39.805 222.75 40.1175 222.594 40.4556 222.506C40.7965 222.415 41.1317 222.369 41.4613 222.369C41.6715 222.369 41.913 222.395 42.1857 222.446C42.4613 222.494 42.7269 222.595 42.9826 222.749C43.2411 222.902 43.4556 223.134 43.6261 223.443C43.7965 223.753 43.8817 224.168 43.8817 224.688V229H42.8761V228.114H42.8249C42.7567 228.256 42.6431 228.408 42.484 228.57C42.3249 228.732 42.1133 228.869 41.8491 228.983C41.5849 229.097 41.2624 229.153 40.8817 229.153ZM41.0352 228.25C41.4329 228.25 41.7681 228.172 42.0408 228.016C42.3164 227.859 42.5238 227.658 42.663 227.411C42.805 227.163 42.8761 226.903 42.8761 226.631V225.71C42.8335 225.761 42.7397 225.808 42.5948 225.851C42.4528 225.891 42.288 225.926 42.1005 225.957C41.9158 225.986 41.7354 226.011 41.5593 226.034C41.386 226.054 41.2454 226.071 41.1374 226.085C40.8761 226.119 40.6317 226.175 40.4045 226.251C40.18 226.325 39.9982 226.437 39.859 226.588C39.7227 226.736 39.6545 226.937 39.6545 227.193C39.6545 227.543 39.7837 227.807 40.0423 227.986C40.3036 228.162 40.6346 228.25 41.0352 228.25ZM50.8352 222.455L48.4148 229H47.392L44.9716 222.455H46.0625L47.8693 227.67H47.9375L49.7443 222.455H50.8352ZM53.1683 225.062V229H52.1626V222.455H53.1342V223.477H53.2195C53.3729 223.145 53.6058 222.878 53.9183 222.676C54.2308 222.472 54.6342 222.369 55.1286 222.369C55.5717 222.369 55.9595 222.46 56.2919 222.642C56.6243 222.821 56.8828 223.094 57.0675 223.46C57.2521 223.824 57.3445 224.284 57.3445 224.841V229H56.3388V224.909C56.3388 224.395 56.2053 223.994 55.9382 223.707C55.6712 223.418 55.3047 223.273 54.8388 223.273C54.5178 223.273 54.2308 223.342 53.978 223.482C53.728 223.621 53.5305 223.824 53.3857 224.091C53.2408 224.358 53.1683 224.682 53.1683 225.062Z" fill="#6B6B6B"/>
<path d="M255.226 249V238.818H256.763V243.68H256.887L261.158 238.818H263.091L258.985 243.402L263.106 249H261.257L257.966 244.451L256.763 245.833V249H255.226ZM263.823 249V238.818H267.552C268.275 238.818 268.873 238.937 269.347 239.176C269.821 239.411 270.175 239.731 270.411 240.136C270.646 240.537 270.764 240.989 270.764 241.493C270.764 241.917 270.686 242.275 270.53 242.567C270.374 242.855 270.165 243.087 269.904 243.263C269.645 243.435 269.36 243.561 269.048 243.641V243.74C269.387 243.757 269.716 243.866 270.038 244.068C270.363 244.267 270.631 244.55 270.843 244.918C271.055 245.286 271.161 245.734 271.161 246.261C271.161 246.781 271.039 247.248 270.793 247.663C270.552 248.074 270.177 248.4 269.67 248.642C269.163 248.881 268.515 249 267.726 249H263.823ZM265.36 247.683H267.577C268.313 247.683 268.84 247.54 269.158 247.255C269.476 246.97 269.635 246.614 269.635 246.186C269.635 245.865 269.554 245.57 269.391 245.301C269.229 245.033 268.997 244.819 268.695 244.66C268.397 244.501 268.043 244.421 267.632 244.421H265.36V247.683ZM265.36 243.223H267.418C267.762 243.223 268.072 243.157 268.347 243.024C268.626 242.892 268.846 242.706 269.009 242.467C269.174 242.225 269.257 241.94 269.257 241.612C269.257 241.191 269.11 240.838 268.815 240.553C268.52 240.268 268.067 240.126 267.458 240.126H265.36V243.223ZM274.786 240.141V238.818H282.666V240.141H279.49V249H277.958V240.141H274.786ZM284.772 249.169C284.288 249.169 283.85 249.08 283.459 248.901C283.068 248.718 282.758 248.455 282.529 248.11C282.304 247.765 282.191 247.343 282.191 246.842C282.191 246.411 282.274 246.057 282.44 245.778C282.606 245.5 282.829 245.28 283.111 245.117C283.393 244.955 283.708 244.832 284.056 244.749C284.404 244.666 284.758 244.603 285.12 244.56C285.577 244.507 285.948 244.464 286.233 244.431C286.518 244.395 286.725 244.337 286.855 244.257C286.984 244.178 287.049 244.048 287.049 243.869V243.835C287.049 243.4 286.926 243.064 286.681 242.825C286.439 242.587 286.077 242.467 285.597 242.467C285.096 242.467 284.702 242.578 284.414 242.8C284.129 243.019 283.931 243.263 283.822 243.531L282.425 243.213C282.591 242.749 282.833 242.375 283.151 242.089C283.472 241.801 283.842 241.592 284.26 241.463C284.677 241.33 285.116 241.264 285.577 241.264C285.882 241.264 286.205 241.301 286.546 241.374C286.891 241.443 287.213 241.572 287.511 241.761C287.813 241.95 288.059 242.22 288.252 242.572C288.444 242.92 288.54 243.372 288.54 243.929V249H287.088V247.956H287.029C286.933 248.148 286.788 248.337 286.596 248.523C286.404 248.708 286.157 248.862 285.855 248.985C285.554 249.108 285.193 249.169 284.772 249.169ZM285.095 247.976C285.506 247.976 285.857 247.895 286.149 247.732C286.444 247.57 286.667 247.358 286.82 247.096C286.976 246.831 287.054 246.547 287.054 246.246V245.261C287.001 245.314 286.898 245.364 286.745 245.411C286.596 245.454 286.425 245.492 286.233 245.525C286.041 245.555 285.854 245.583 285.671 245.609C285.489 245.633 285.337 245.652 285.214 245.669C284.926 245.705 284.662 245.767 284.424 245.853C284.188 245.939 283.999 246.063 283.857 246.226C283.718 246.385 283.648 246.597 283.648 246.862C283.648 247.23 283.784 247.509 284.056 247.697C284.327 247.883 284.674 247.976 285.095 247.976ZM291.306 238.818V249H289.82V238.818H291.306ZM295.898 249.154C295.145 249.154 294.497 248.993 293.954 248.672C293.413 248.347 292.996 247.891 292.701 247.305C292.409 246.715 292.263 246.024 292.263 245.232C292.263 244.449 292.409 243.76 292.701 243.163C292.996 242.567 293.407 242.101 293.934 241.766C294.464 241.432 295.084 241.264 295.793 241.264C296.224 241.264 296.642 241.335 297.046 241.478C297.45 241.621 297.813 241.844 298.135 242.149C298.456 242.454 298.71 242.85 298.895 243.337C299.081 243.821 299.174 244.41 299.174 245.102V245.629H293.103V244.516H297.717C297.717 244.125 297.638 243.778 297.478 243.477C297.319 243.172 297.096 242.931 296.807 242.756C296.522 242.58 296.188 242.492 295.803 242.492C295.385 242.492 295.021 242.595 294.709 242.8C294.401 243.003 294.162 243.268 293.993 243.596C293.828 243.921 293.745 244.274 293.745 244.655V245.525C293.745 246.035 293.834 246.469 294.013 246.827C294.196 247.185 294.449 247.459 294.774 247.648C295.099 247.833 295.478 247.926 295.912 247.926C296.194 247.926 296.451 247.886 296.683 247.807C296.915 247.724 297.116 247.601 297.285 247.439C297.454 247.277 297.583 247.076 297.672 246.837L299.079 247.091C298.967 247.505 298.764 247.868 298.473 248.18C298.184 248.488 297.822 248.728 297.384 248.901C296.95 249.07 296.454 249.154 295.898 249.154ZM301.61 244.466V249H300.123V241.364H301.55V242.607H301.644C301.82 242.202 302.095 241.877 302.47 241.632C302.848 241.387 303.323 241.264 303.897 241.264C304.417 241.264 304.873 241.374 305.264 241.592C305.655 241.808 305.958 242.129 306.174 242.557C306.389 242.984 306.497 243.513 306.497 244.143V249H305.01V244.322C305.01 243.768 304.866 243.336 304.578 243.024C304.289 242.709 303.893 242.552 303.389 242.552C303.045 242.552 302.738 242.626 302.47 242.776C302.205 242.925 301.994 243.143 301.838 243.432C301.686 243.717 301.61 244.062 301.61 244.466ZM311.355 241.364V242.557H307.184V241.364H311.355ZM308.302 239.534H309.789V246.758C309.789 247.046 309.832 247.263 309.918 247.409C310.004 247.552 310.115 247.649 310.251 247.702C310.39 247.752 310.541 247.777 310.704 247.777C310.823 247.777 310.927 247.769 311.017 247.752C311.106 247.736 311.176 247.722 311.226 247.712L311.494 248.94C311.408 248.973 311.285 249.007 311.126 249.04C310.967 249.076 310.768 249.096 310.53 249.099C310.139 249.106 309.774 249.036 309.436 248.891C309.098 248.745 308.824 248.519 308.616 248.214C308.407 247.91 308.302 247.527 308.302 247.066V239.534Z" fill="#0E0E0E"/>
<path d="M287.955 229V220.273H289.012V224.602H289.114L293.035 220.273H294.415L290.751 224.21L294.415 229H293.137L290.103 224.943L289.012 226.17V229H287.955ZM296.653 220.273V229H295.647V220.273H296.653ZM302.62 226.324V222.455H303.625V229H302.62V227.892H302.551C302.398 228.224 302.159 228.507 301.836 228.74C301.512 228.97 301.103 229.085 300.608 229.085C300.199 229.085 299.836 228.996 299.517 228.817C299.199 228.635 298.949 228.362 298.767 227.999C298.586 227.632 298.495 227.17 298.495 226.614V222.455H299.5V226.545C299.5 227.023 299.634 227.403 299.901 227.688C300.171 227.972 300.515 228.114 300.932 228.114C301.182 228.114 301.436 228.05 301.695 227.922C301.956 227.794 302.175 227.598 302.351 227.334C302.53 227.07 302.62 226.733 302.62 226.324ZM305.604 229V220.273H306.609V223.494H306.695C306.768 223.381 306.871 223.236 307.001 223.06C307.135 222.881 307.325 222.722 307.572 222.582C307.822 222.44 308.161 222.369 308.587 222.369C309.138 222.369 309.624 222.507 310.044 222.783C310.464 223.058 310.793 223.449 311.028 223.955C311.264 224.46 311.382 225.057 311.382 225.744C311.382 226.438 311.264 227.038 311.028 227.547C310.793 228.053 310.466 228.445 310.048 228.723C309.631 228.999 309.149 229.136 308.604 229.136C308.183 229.136 307.847 229.067 307.594 228.928C307.341 228.786 307.146 228.625 307.01 228.446C306.874 228.264 306.768 228.114 306.695 227.994H306.575V229H305.604ZM306.592 225.727C306.592 226.222 306.665 226.658 306.81 227.036C306.955 227.411 307.166 227.705 307.445 227.918C307.723 228.128 308.064 228.233 308.467 228.233C308.888 228.233 309.239 228.122 309.52 227.901C309.804 227.676 310.017 227.375 310.159 226.997C310.304 226.616 310.376 226.193 310.376 225.727C310.376 225.267 310.305 224.852 310.163 224.483C310.024 224.111 309.813 223.817 309.528 223.601C309.247 223.382 308.893 223.273 308.467 223.273C308.058 223.273 307.714 223.376 307.436 223.584C307.158 223.788 306.947 224.075 306.805 224.445C306.663 224.811 306.592 225.239 306.592 225.727Z" fill="#6B6B6B"/>
<path d="M242.56 295.818V306H241.019V297.359H240.959L238.523 298.95V297.479L241.064 295.818H242.56ZM244.958 306L249.402 297.21V297.136H244.262V295.818H250.993V297.18L246.563 306H244.958ZM256.541 300.263V301.555H252.027V300.263H256.541ZM261.347 306.169C260.562 306.166 259.891 305.959 259.334 305.548C258.777 305.137 258.351 304.538 258.056 303.753C257.761 302.967 257.614 302.021 257.614 300.914C257.614 299.81 257.761 298.867 258.056 298.085C258.354 297.303 258.782 296.706 259.339 296.295C259.899 295.884 260.568 295.679 261.347 295.679C262.126 295.679 262.794 295.886 263.351 296.3C263.908 296.711 264.333 297.308 264.628 298.09C264.927 298.869 265.076 299.81 265.076 300.914C265.076 302.024 264.928 302.972 264.633 303.758C264.338 304.54 263.913 305.138 263.356 305.553C262.799 305.964 262.129 306.169 261.347 306.169ZM261.347 304.842C262.037 304.842 262.575 304.505 262.963 303.832C263.354 303.16 263.55 302.187 263.55 300.914C263.55 300.069 263.46 299.355 263.281 298.771C263.105 298.185 262.852 297.741 262.52 297.439C262.192 297.134 261.801 296.982 261.347 296.982C260.661 296.982 260.123 297.32 259.731 297.996C259.34 298.672 259.143 299.645 259.14 300.914C259.14 301.763 259.228 302.48 259.403 303.067C259.582 303.65 259.836 304.093 260.164 304.394C260.492 304.692 260.886 304.842 261.347 304.842ZM265.926 304.011V302.768L270.326 295.818H271.305V297.648H270.684L267.537 302.629V302.709H273.567V304.011H265.926ZM270.753 306V303.634L270.763 303.067V295.818H272.22V306H270.753ZM279.119 300.263V301.555H274.605V300.263H279.119ZM279.97 306V304.886L283.415 301.317C283.783 300.929 284.087 300.589 284.325 300.298C284.567 300.003 284.748 299.723 284.867 299.457C284.986 299.192 285.046 298.911 285.046 298.612C285.046 298.274 284.966 297.982 284.807 297.737C284.648 297.489 284.431 297.298 284.156 297.165C283.881 297.03 283.571 296.962 283.226 296.962C282.862 296.962 282.544 297.036 282.272 297.185C282 297.335 281.791 297.545 281.645 297.817C281.5 298.089 281.427 298.407 281.427 298.771H279.96C279.96 298.152 280.103 297.61 280.388 297.146C280.673 296.682 281.064 296.322 281.561 296.067C282.058 295.808 282.623 295.679 283.256 295.679C283.896 295.679 284.459 295.807 284.947 296.062C285.437 296.314 285.82 296.658 286.095 297.096C286.37 297.53 286.508 298.021 286.508 298.567C286.508 298.945 286.436 299.315 286.294 299.676C286.155 300.037 285.911 300.44 285.563 300.884C285.215 301.325 284.731 301.86 284.111 302.49L282.088 304.608V304.683H286.672V306H279.97ZM291.401 306.169C290.615 306.166 289.944 305.959 289.387 305.548C288.83 305.137 288.404 304.538 288.11 303.753C287.815 302.967 287.667 302.021 287.667 300.914C287.667 299.81 287.815 298.867 288.11 298.085C288.408 297.303 288.835 296.706 289.392 296.295C289.952 295.884 290.622 295.679 291.401 295.679C292.18 295.679 292.847 295.886 293.404 296.3C293.961 296.711 294.387 297.308 294.682 298.09C294.98 298.869 295.129 299.81 295.129 300.914C295.129 302.024 294.982 302.972 294.687 303.758C294.392 304.54 293.966 305.138 293.409 305.553C292.852 305.964 292.183 306.169 291.401 306.169ZM291.401 304.842C292.09 304.842 292.629 304.505 293.016 303.832C293.408 303.16 293.603 302.187 293.603 300.914C293.603 300.069 293.514 299.355 293.335 298.771C293.159 298.185 292.905 297.741 292.574 297.439C292.246 297.134 291.855 296.982 291.401 296.982C290.715 296.982 290.176 297.32 289.785 297.996C289.394 298.672 289.197 299.645 289.193 300.914C289.193 301.763 289.281 302.48 289.457 303.067C289.636 303.65 289.889 304.093 290.217 304.394C290.546 304.692 290.94 304.842 291.401 304.842ZM296.193 306V304.886L299.638 301.317C300.006 300.929 300.31 300.589 300.548 300.298C300.79 300.003 300.971 299.723 301.09 299.457C301.209 299.192 301.269 298.911 301.269 298.612C301.269 298.274 301.19 297.982 301.03 297.737C300.871 297.489 300.654 297.298 300.379 297.165C300.104 297.03 299.794 296.962 299.449 296.962C299.085 296.962 298.767 297.036 298.495 297.185C298.223 297.335 298.014 297.545 297.869 297.817C297.723 298.089 297.65 298.407 297.65 298.771H296.183C296.183 298.152 296.326 297.61 296.611 297.146C296.896 296.682 297.287 296.322 297.784 296.067C298.281 295.808 298.846 295.679 299.479 295.679C300.119 295.679 300.682 295.807 301.17 296.062C301.66 296.314 302.043 296.658 302.318 297.096C302.593 297.53 302.731 298.021 302.731 298.567C302.731 298.945 302.659 299.315 302.517 299.676C302.378 300.037 302.134 300.44 301.786 300.884C301.438 301.325 300.954 301.86 300.334 302.49L298.311 304.608V304.683H302.895V306H296.193ZM307.634 306.139C307.18 306.133 306.732 306.05 306.291 305.891C305.854 305.732 305.456 305.466 305.098 305.095C304.74 304.724 304.454 304.225 304.238 303.599C304.026 302.972 303.92 302.19 303.92 301.252C303.92 300.364 304.008 299.575 304.183 298.886C304.362 298.196 304.619 297.615 304.954 297.141C305.289 296.663 305.693 296.3 306.167 296.052C306.641 295.803 307.173 295.679 307.763 295.679C308.369 295.679 308.908 295.798 309.379 296.037C309.849 296.276 310.231 296.605 310.522 297.026C310.817 297.447 311.004 297.926 311.084 298.463H309.568C309.465 298.039 309.261 297.692 308.956 297.424C308.651 297.156 308.253 297.021 307.763 297.021C307.017 297.021 306.436 297.346 306.018 297.996C305.604 298.645 305.395 299.549 305.392 300.705H305.466C305.642 300.417 305.857 300.172 306.112 299.969C306.371 299.764 306.659 299.607 306.977 299.497C307.299 299.384 307.637 299.328 307.992 299.328C308.582 299.328 309.115 299.472 309.593 299.761C310.073 300.046 310.456 300.44 310.741 300.944C311.026 301.448 311.169 302.024 311.169 302.674C311.169 303.324 311.021 303.912 310.726 304.439C310.434 304.966 310.023 305.384 309.493 305.692C308.963 305.997 308.343 306.146 307.634 306.139ZM307.629 304.847C308.02 304.847 308.369 304.75 308.678 304.558C308.986 304.366 309.23 304.107 309.409 303.783C309.588 303.458 309.677 303.095 309.677 302.694C309.677 302.303 309.589 301.946 309.414 301.625C309.241 301.304 309.003 301.048 308.698 300.859C308.396 300.67 308.051 300.576 307.664 300.576C307.369 300.576 307.095 300.632 306.843 300.745C306.595 300.858 306.376 301.013 306.187 301.212C305.998 301.411 305.849 301.64 305.74 301.898C305.633 302.154 305.58 302.424 305.58 302.709C305.58 303.09 305.668 303.443 305.844 303.768C306.023 304.093 306.267 304.354 306.575 304.553C306.886 304.749 307.238 304.847 307.629 304.847Z" fill="#0E0E0E"/>
<path d="M247.893 281.636C247.893 282.557 247.727 283.352 247.395 284.023C247.062 284.693 246.606 285.21 246.027 285.574C245.447 285.938 244.785 286.119 244.041 286.119C243.297 286.119 242.635 285.938 242.055 285.574C241.475 285.21 241.02 284.693 240.687 284.023C240.355 283.352 240.189 282.557 240.189 281.636C240.189 280.716 240.355 279.92 240.687 279.25C241.02 278.58 241.475 278.062 242.055 277.699C242.635 277.335 243.297 277.153 244.041 277.153C244.785 277.153 245.447 277.335 246.027 277.699C246.606 278.062 247.062 278.58 247.395 279.25C247.727 279.92 247.893 280.716 247.893 281.636ZM246.87 281.636C246.87 280.881 246.744 280.243 246.491 279.723C246.241 279.203 245.902 278.81 245.473 278.543C245.047 278.276 244.569 278.142 244.041 278.142C243.512 278.142 243.034 278.276 242.605 278.543C242.179 278.81 241.839 279.203 241.586 279.723C241.336 280.243 241.211 280.881 241.211 281.636C241.211 282.392 241.336 283.03 241.586 283.55C241.839 284.07 242.179 284.463 242.605 284.73C243.034 284.997 243.512 285.131 244.041 285.131C244.569 285.131 245.047 284.997 245.473 284.73C245.902 284.463 246.241 284.07 246.491 283.55C246.744 283.03 246.87 282.392 246.87 281.636ZM249.534 288.455V279.455H250.505V280.494H250.625C250.699 280.381 250.801 280.236 250.931 280.06C251.065 279.881 251.255 279.722 251.502 279.582C251.752 279.44 252.091 279.369 252.517 279.369C253.068 279.369 253.554 279.507 253.974 279.783C254.395 280.058 254.723 280.449 254.958 280.955C255.194 281.46 255.312 282.057 255.312 282.744C255.312 283.438 255.194 284.038 254.958 284.547C254.723 285.053 254.396 285.445 253.978 285.723C253.561 285.999 253.079 286.136 252.534 286.136C252.113 286.136 251.777 286.067 251.524 285.928C251.271 285.786 251.076 285.625 250.94 285.446C250.804 285.264 250.699 285.114 250.625 284.994H250.539V288.455H249.534ZM250.522 282.727C250.522 283.222 250.595 283.658 250.74 284.036C250.885 284.411 251.096 284.705 251.375 284.918C251.653 285.128 251.994 285.233 252.397 285.233C252.818 285.233 253.169 285.122 253.45 284.901C253.734 284.676 253.947 284.375 254.089 283.997C254.234 283.616 254.306 283.193 254.306 282.727C254.306 282.267 254.235 281.852 254.093 281.483C253.954 281.111 253.743 280.817 253.458 280.601C253.177 280.382 252.824 280.273 252.397 280.273C251.988 280.273 251.645 280.376 251.366 280.584C251.088 280.788 250.877 281.075 250.735 281.445C250.593 281.811 250.522 282.239 250.522 282.727ZM256.846 286V279.455H257.818V280.443H257.886C258.005 280.119 258.221 279.857 258.534 279.655C258.846 279.453 259.199 279.352 259.591 279.352C259.664 279.352 259.757 279.354 259.868 279.357C259.978 279.359 260.062 279.364 260.119 279.369V280.392C260.085 280.384 260.007 280.371 259.885 280.354C259.765 280.334 259.639 280.324 259.505 280.324C259.187 280.324 258.903 280.391 258.653 280.524C258.406 280.655 258.21 280.837 258.065 281.07C257.923 281.3 257.852 281.562 257.852 281.858V286H256.846ZM263.856 286.136C263.225 286.136 262.681 285.997 262.224 285.719C261.77 285.438 261.419 285.045 261.172 284.543C260.927 284.037 260.805 283.449 260.805 282.778C260.805 282.108 260.927 281.517 261.172 281.006C261.419 280.491 261.762 280.091 262.203 279.804C262.646 279.514 263.163 279.369 263.754 279.369C264.095 279.369 264.431 279.426 264.764 279.54C265.096 279.653 265.399 279.838 265.672 280.094C265.944 280.347 266.162 280.682 266.324 281.099C266.485 281.517 266.566 282.031 266.566 282.642V283.068H261.521V282.199H265.544C265.544 281.83 265.47 281.5 265.322 281.21C265.177 280.92 264.97 280.692 264.7 280.524C264.433 280.357 264.118 280.273 263.754 280.273C263.353 280.273 263.007 280.372 262.714 280.571C262.424 280.767 262.201 281.023 262.045 281.338C261.889 281.653 261.811 281.991 261.811 282.352V282.932C261.811 283.426 261.896 283.845 262.066 284.189C262.24 284.53 262.48 284.79 262.787 284.969C263.093 285.145 263.45 285.233 263.856 285.233C264.12 285.233 264.359 285.196 264.572 285.122C264.788 285.045 264.974 284.932 265.13 284.781C265.287 284.628 265.407 284.437 265.493 284.21L266.464 284.483C266.362 284.812 266.19 285.102 265.949 285.352C265.707 285.599 265.409 285.793 265.054 285.932C264.699 286.068 264.299 286.136 263.856 286.136ZM270.943 279.455V280.307H267.551V279.455H270.943ZM268.539 277.886H269.545V284.125C269.545 284.409 269.586 284.622 269.669 284.764C269.754 284.903 269.862 284.997 269.993 285.045C270.126 285.091 270.267 285.114 270.414 285.114C270.525 285.114 270.616 285.108 270.687 285.097C270.758 285.082 270.815 285.071 270.858 285.062L271.062 285.966C270.994 285.991 270.899 286.017 270.777 286.043C270.654 286.071 270.5 286.085 270.312 286.085C270.028 286.085 269.75 286.024 269.477 285.902C269.207 285.78 268.983 285.594 268.804 285.344C268.627 285.094 268.539 284.778 268.539 284.398V277.886ZM275.302 279.455V280.307H271.91V279.455H275.302ZM272.899 277.886H273.904V284.125C273.904 284.409 273.946 284.622 274.028 284.764C274.113 284.903 274.221 284.997 274.352 285.045C274.485 285.091 274.626 285.114 274.774 285.114C274.885 285.114 274.975 285.108 275.047 285.097C275.118 285.082 275.174 285.071 275.217 285.062L275.422 285.966C275.353 285.991 275.258 286.017 275.136 286.043C275.014 286.071 274.859 286.085 274.672 286.085C274.387 286.085 274.109 286.024 273.836 285.902C273.566 285.78 273.342 285.594 273.163 285.344C272.987 285.094 272.899 284.778 272.899 284.398V277.886ZM279.489 286.136C278.858 286.136 278.314 285.997 277.857 285.719C277.402 285.438 277.051 285.045 276.804 284.543C276.56 284.037 276.438 283.449 276.438 282.778C276.438 282.108 276.56 281.517 276.804 281.006C277.051 280.491 277.395 280.091 277.836 279.804C278.279 279.514 278.796 279.369 279.387 279.369C279.728 279.369 280.064 279.426 280.397 279.54C280.729 279.653 281.032 279.838 281.304 280.094C281.577 280.347 281.794 280.682 281.956 281.099C282.118 281.517 282.199 282.031 282.199 282.642V283.068H277.154V282.199H281.176C281.176 281.83 281.103 281.5 280.955 281.21C280.81 280.92 280.603 280.692 280.333 280.524C280.066 280.357 279.75 280.273 279.387 280.273C278.986 280.273 278.64 280.372 278.347 280.571C278.057 280.767 277.834 281.023 277.678 281.338C277.522 281.653 277.444 281.991 277.444 282.352V282.932C277.444 283.426 277.529 283.845 277.699 284.189C277.873 284.53 278.113 284.79 278.419 284.969C278.726 285.145 279.083 285.233 279.489 285.233C279.753 285.233 279.992 285.196 280.205 285.122C280.421 285.045 280.607 284.932 280.763 284.781C280.919 284.628 281.04 284.437 281.125 284.21L282.097 284.483C281.995 284.812 281.823 285.102 281.581 285.352C281.34 285.599 281.042 285.793 280.686 285.932C280.331 286.068 279.932 286.136 279.489 286.136ZM286.576 279.455V280.307H283.184V279.455H286.576ZM284.172 277.886H285.178V284.125C285.178 284.409 285.219 284.622 285.301 284.764C285.387 284.903 285.495 284.997 285.625 285.045C285.759 285.091 285.9 285.114 286.047 285.114C286.158 285.114 286.249 285.108 286.32 285.097C286.391 285.082 286.448 285.071 286.49 285.062L286.695 285.966C286.627 285.991 286.532 286.017 286.409 286.043C286.287 286.071 286.132 286.085 285.945 286.085C285.661 286.085 285.382 286.024 285.11 285.902C284.84 285.78 284.615 285.594 284.436 285.344C284.26 285.094 284.172 284.778 284.172 284.398V277.886ZM293.935 286.136C293.39 286.136 292.908 285.999 292.49 285.723C292.073 285.445 291.746 285.053 291.51 284.547C291.275 284.038 291.157 283.438 291.157 282.744C291.157 282.057 291.275 281.46 291.51 280.955C291.746 280.449 292.074 280.058 292.495 279.783C292.915 279.507 293.401 279.369 293.952 279.369C294.378 279.369 294.715 279.44 294.962 279.582C295.212 279.722 295.402 279.881 295.533 280.06C295.667 280.236 295.77 280.381 295.844 280.494H295.929V277.273H296.935V286H295.963V284.994H295.844C295.77 285.114 295.665 285.264 295.529 285.446C295.392 285.625 295.198 285.786 294.945 285.928C294.692 286.067 294.355 286.136 293.935 286.136ZM294.071 285.233C294.475 285.233 294.816 285.128 295.094 284.918C295.373 284.705 295.584 284.411 295.729 284.036C295.874 283.658 295.946 283.222 295.946 282.727C295.946 282.239 295.875 281.811 295.733 281.445C295.591 281.075 295.381 280.788 295.103 280.584C294.824 280.376 294.48 280.273 294.071 280.273C293.645 280.273 293.29 280.382 293.006 280.601C292.725 280.817 292.513 281.111 292.371 281.483C292.232 281.852 292.162 282.267 292.162 282.727C292.162 283.193 292.233 283.616 292.375 283.997C292.52 284.375 292.733 284.676 293.015 284.901C293.299 285.122 293.651 285.233 294.071 285.233ZM301.661 286.136C301.03 286.136 300.486 285.997 300.029 285.719C299.574 285.438 299.223 285.045 298.976 284.543C298.732 284.037 298.61 283.449 298.61 282.778C298.61 282.108 298.732 281.517 298.976 281.006C299.223 280.491 299.567 280.091 300.007 279.804C300.451 279.514 300.968 279.369 301.559 279.369C301.9 279.369 302.236 279.426 302.569 279.54C302.901 279.653 303.203 279.838 303.476 280.094C303.749 280.347 303.966 280.682 304.128 281.099C304.29 281.517 304.371 282.031 304.371 282.642V283.068H299.326V282.199H303.348C303.348 281.83 303.275 281.5 303.127 281.21C302.982 280.92 302.775 280.692 302.505 280.524C302.238 280.357 301.922 280.273 301.559 280.273C301.158 280.273 300.811 280.372 300.519 280.571C300.229 280.767 300.006 281.023 299.85 281.338C299.694 281.653 299.615 281.991 299.615 282.352V282.932C299.615 283.426 299.701 283.845 299.871 284.189C300.044 284.53 300.284 284.79 300.591 284.969C300.898 285.145 301.255 285.233 301.661 285.233C301.925 285.233 302.164 285.196 302.377 285.122C302.593 285.045 302.779 284.932 302.935 284.781C303.091 284.628 303.212 284.437 303.297 284.21L304.269 284.483C304.167 284.812 303.995 285.102 303.753 285.352C303.512 285.599 303.213 285.793 302.858 285.932C302.503 286.068 302.104 286.136 301.661 286.136ZM306.907 282.062V286H305.901V279.455H306.873V280.477H306.958C307.111 280.145 307.344 279.878 307.657 279.676C307.969 279.472 308.373 279.369 308.867 279.369C309.31 279.369 309.698 279.46 310.03 279.642C310.363 279.821 310.621 280.094 310.806 280.46C310.99 280.824 311.083 281.284 311.083 281.841V286H310.077V281.909C310.077 281.395 309.944 280.994 309.676 280.707C309.409 280.418 309.043 280.273 308.577 280.273C308.256 280.273 307.969 280.342 307.716 280.482C307.466 280.621 307.269 280.824 307.124 281.091C306.979 281.358 306.907 281.682 306.907 282.062Z" fill="#6B6B6B"/>
<path d="M30.9787 306H29.348L33.0121 295.818H34.7869L38.451 306H36.8203L33.9418 297.668H33.8622L30.9787 306ZM31.2521 302.013H36.5419V303.305H31.2521V302.013Z" fill="#0E0E0E"/>
<path d="M30.0568 286V277.273H33.0057C33.6875 277.273 34.2472 277.389 34.6847 277.622C35.1222 277.852 35.446 278.169 35.6562 278.572C35.8665 278.976 35.9716 279.435 35.9716 279.949C35.9716 280.463 35.8665 280.919 35.6562 281.317C35.446 281.714 35.1236 282.027 34.6889 282.254C34.2543 282.479 33.6989 282.591 33.0227 282.591H30.6364V281.636H32.9886C33.4545 281.636 33.8295 281.568 34.1136 281.432C34.4006 281.295 34.608 281.102 34.7358 280.852C34.8665 280.599 34.9318 280.298 34.9318 279.949C34.9318 279.599 34.8665 279.294 34.7358 279.033C34.6051 278.771 34.3963 278.57 34.1094 278.428C33.8224 278.283 33.4432 278.21 32.9716 278.21H31.1136V286H30.0568ZM34.1648 282.08L36.3125 286H35.0852L32.9716 282.08H34.1648ZM39.5224 286.153C39.1076 286.153 38.7312 286.075 38.3931 285.919C38.055 285.76 37.7866 285.531 37.5877 285.233C37.3888 284.932 37.2894 284.568 37.2894 284.142C37.2894 283.767 37.3633 283.463 37.511 283.23C37.6587 282.994 37.8562 282.81 38.1033 282.676C38.3505 282.543 38.6232 282.443 38.9215 282.378C39.2227 282.31 39.5252 282.256 39.8292 282.216C40.2269 282.165 40.5494 282.126 40.7965 282.101C41.0465 282.072 41.2283 282.026 41.342 281.96C41.4585 281.895 41.5167 281.781 41.5167 281.619V281.585C41.5167 281.165 41.4016 280.838 41.1715 280.605C40.9442 280.372 40.5991 280.256 40.136 280.256C39.6559 280.256 39.2795 280.361 39.0067 280.571C38.734 280.781 38.5423 281.006 38.4315 281.244L37.4769 280.903C37.6474 280.506 37.8746 280.196 38.1587 279.974C38.4457 279.75 38.7582 279.594 39.0962 279.506C39.4371 279.415 39.7724 279.369 40.1019 279.369C40.3121 279.369 40.5536 279.395 40.8263 279.446C41.1019 279.494 41.3675 279.595 41.6232 279.749C41.8817 279.902 42.0962 280.134 42.2667 280.443C42.4371 280.753 42.5224 281.168 42.5224 281.688V286H41.5167V285.114H41.4656C41.3974 285.256 41.2837 285.408 41.1246 285.57C40.9656 285.732 40.7539 285.869 40.4897 285.983C40.2255 286.097 39.9031 286.153 39.5224 286.153ZM39.6758 285.25C40.0735 285.25 40.4087 285.172 40.6815 285.016C40.957 284.859 41.1644 284.658 41.3036 284.411C41.4457 284.163 41.5167 283.903 41.5167 283.631V282.71C41.4741 282.761 41.3803 282.808 41.2354 282.851C41.0934 282.891 40.9286 282.926 40.7411 282.957C40.5565 282.986 40.3761 283.011 40.1999 283.034C40.0266 283.054 39.886 283.071 39.7781 283.085C39.5167 283.119 39.2724 283.175 39.0451 283.251C38.8207 283.325 38.6388 283.437 38.4996 283.588C38.3633 283.736 38.2951 283.937 38.2951 284.193C38.2951 284.543 38.4244 284.807 38.6829 284.986C38.9442 285.162 39.2752 285.25 39.6758 285.25ZM47.2045 279.455V280.307H43.8125V279.455H47.2045ZM44.8011 277.886H45.8068V284.125C45.8068 284.409 45.848 284.622 45.9304 284.764C46.0156 284.903 46.1236 284.997 46.2543 285.045C46.3878 285.091 46.5284 285.114 46.6761 285.114C46.7869 285.114 46.8778 285.108 46.9489 285.097C47.0199 285.082 47.0767 285.071 47.1193 285.062L47.3239 285.966C47.2557 285.991 47.1605 286.017 47.0384 286.043C46.9162 286.071 46.7614 286.085 46.5739 286.085C46.2898 286.085 46.0114 286.024 45.7386 285.902C45.4688 285.78 45.2443 285.594 45.0653 285.344C44.8892 285.094 44.8011 284.778 44.8011 284.398V277.886ZM48.7173 286V279.455H49.723V286H48.7173ZM49.2287 278.364C49.0327 278.364 48.8636 278.297 48.7216 278.163C48.5824 278.03 48.5128 277.869 48.5128 277.682C48.5128 277.494 48.5824 277.334 48.7216 277.2C48.8636 277.067 49.0327 277 49.2287 277C49.4247 277 49.5923 277.067 49.7315 277.2C49.8736 277.334 49.9446 277.494 49.9446 277.682C49.9446 277.869 49.8736 278.03 49.7315 278.163C49.5923 278.297 49.4247 278.364 49.2287 278.364ZM52.5707 282.062V286H51.565V279.455H52.5366V280.477H52.6218C52.7752 280.145 53.0082 279.878 53.3207 279.676C53.6332 279.472 54.0366 279.369 54.5309 279.369C54.9741 279.369 55.3619 279.46 55.6942 279.642C56.0266 279.821 56.2852 280.094 56.4698 280.46C56.6545 280.824 56.7468 281.284 56.7468 281.841V286H55.7411V281.909C55.7411 281.395 55.6076 280.994 55.3406 280.707C55.0735 280.418 54.707 280.273 54.2411 280.273C53.9201 280.273 53.6332 280.342 53.3803 280.482C53.1303 280.621 52.9329 280.824 52.788 281.091C52.6431 281.358 52.5707 281.682 52.5707 282.062ZM61.2266 288.591C60.7408 288.591 60.3232 288.528 59.9737 288.403C59.6243 288.281 59.3331 288.119 59.1001 287.918C58.87 287.719 58.6868 287.506 58.5504 287.278L59.3516 286.716C59.4425 286.835 59.5575 286.972 59.6967 287.125C59.8359 287.281 60.0263 287.416 60.2678 287.53C60.5121 287.646 60.8317 287.705 61.2266 287.705C61.755 287.705 62.1911 287.577 62.5348 287.321C62.8786 287.065 63.0504 286.665 63.0504 286.119V284.79H62.9652C62.8913 284.909 62.7862 285.057 62.6499 285.233C62.5163 285.406 62.3232 285.561 62.0703 285.697C61.8203 285.831 61.4822 285.898 61.0561 285.898C60.5277 285.898 60.0533 285.773 59.6328 285.523C59.2152 285.273 58.8842 284.909 58.6399 284.432C58.3984 283.955 58.2777 283.375 58.2777 282.693C58.2777 282.023 58.3956 281.439 58.6314 280.942C58.8672 280.442 59.1953 280.055 59.6158 279.783C60.0362 279.507 60.522 279.369 61.0732 279.369C61.4993 279.369 61.8374 279.44 62.0874 279.582C62.3402 279.722 62.5334 279.881 62.6669 280.06C62.8033 280.236 62.9084 280.381 62.9822 280.494H63.0845V279.455H64.0561V286.188C64.0561 286.75 63.9283 287.207 63.6726 287.56C63.4197 287.915 63.0788 288.175 62.6499 288.339C62.2237 288.507 61.7493 288.591 61.2266 288.591ZM61.1925 284.994C61.5959 284.994 61.9368 284.902 62.2152 284.717C62.4936 284.533 62.7053 284.267 62.8501 283.92C62.995 283.574 63.0675 283.159 63.0675 282.676C63.0675 282.205 62.9964 281.788 62.8544 281.428C62.7124 281.067 62.5021 280.784 62.2237 280.58C61.9453 280.375 61.6016 280.273 61.1925 280.273C60.7663 280.273 60.4112 280.381 60.1271 280.597C59.8459 280.812 59.6342 281.102 59.4922 281.466C59.353 281.83 59.2834 282.233 59.2834 282.676C59.2834 283.131 59.3544 283.533 59.4964 283.882C59.6413 284.229 59.8544 284.501 60.1357 284.7C60.4197 284.896 60.772 284.994 61.1925 284.994Z" fill="#6B6B6B"/>
<path d="M149.339 99.4531C149.273 98.8329 148.994 98.3499 148.501 98.0043C148.014 97.6586 147.379 97.4858 146.598 97.4858C146.049 97.4858 145.578 97.5687 145.185 97.7344C144.792 97.9001 144.491 98.125 144.283 98.4091C144.074 98.6932 143.968 99.0175 143.963 99.3821C143.963 99.6851 144.032 99.9479 144.169 100.17C144.311 100.393 144.503 100.582 144.744 100.739C144.986 100.89 145.253 101.018 145.547 101.122C145.84 101.226 146.136 101.314 146.435 101.385L147.798 101.726C148.348 101.854 148.875 102.027 149.382 102.244C149.893 102.462 150.35 102.737 150.753 103.068C151.16 103.4 151.482 103.8 151.719 104.268C151.955 104.737 152.074 105.286 152.074 105.916C152.074 106.768 151.856 107.519 151.42 108.168C150.985 108.812 150.355 109.316 149.531 109.68C148.712 110.04 147.72 110.22 146.555 110.22C145.424 110.22 144.441 110.045 143.608 109.695C142.779 109.344 142.131 108.833 141.662 108.161C141.198 107.488 140.947 106.669 140.909 105.703H143.501C143.539 106.21 143.696 106.631 143.97 106.967C144.245 107.304 144.602 107.554 145.043 107.72C145.488 107.886 145.985 107.969 146.534 107.969C147.107 107.969 147.609 107.884 148.04 107.713C148.475 107.538 148.816 107.296 149.062 106.989C149.309 106.676 149.434 106.312 149.439 105.895C149.434 105.516 149.323 105.204 149.105 104.957C148.887 104.706 148.582 104.498 148.189 104.332C147.801 104.162 147.346 104.01 146.825 103.878L145.17 103.452C143.973 103.144 143.026 102.678 142.33 102.053C141.638 101.423 141.293 100.587 141.293 99.5455C141.293 98.6884 141.525 97.938 141.989 97.294C142.457 96.6501 143.094 96.1506 143.899 95.7955C144.704 95.4356 145.616 95.2557 146.634 95.2557C147.666 95.2557 148.57 95.4356 149.347 95.7955C150.128 96.1506 150.741 96.6454 151.186 97.2798C151.631 97.9096 151.861 98.634 151.875 99.4531H149.339ZM161.262 105.412V99.0909H163.833V110H161.341V108.061H161.227C160.981 108.672 160.576 109.171 160.012 109.56C159.454 109.948 158.765 110.142 157.946 110.142C157.231 110.142 156.599 109.983 156.049 109.666C155.505 109.344 155.079 108.878 154.771 108.267C154.463 107.652 154.309 106.908 154.309 106.037V99.0909H156.88V105.639C156.88 106.33 157.07 106.88 157.449 107.287C157.827 107.694 158.324 107.898 158.94 107.898C159.319 107.898 159.686 107.805 160.041 107.621C160.396 107.436 160.687 107.161 160.914 106.797C161.146 106.428 161.262 105.966 161.262 105.412ZM171.236 110.213C170.147 110.213 169.212 109.974 168.43 109.496C167.654 109.018 167.055 108.357 166.634 107.514C166.217 106.667 166.009 105.691 166.009 104.588C166.009 103.48 166.222 102.502 166.648 101.655C167.074 100.803 167.675 100.14 168.452 99.6662C169.233 99.188 170.156 98.9489 171.222 98.9489C172.107 98.9489 172.891 99.1122 173.572 99.4389C174.259 99.7609 174.806 100.218 175.213 100.81C175.62 101.397 175.852 102.083 175.909 102.869H173.452C173.352 102.344 173.116 101.906 172.741 101.555C172.372 101.2 171.877 101.023 171.257 101.023C170.732 101.023 170.27 101.165 169.872 101.449C169.474 101.728 169.164 102.131 168.942 102.656C168.724 103.182 168.615 103.812 168.615 104.545C168.615 105.289 168.724 105.928 168.942 106.463C169.16 106.993 169.465 107.403 169.858 107.692C170.256 107.976 170.722 108.118 171.257 108.118C171.636 108.118 171.974 108.047 172.273 107.905C172.576 107.758 172.829 107.547 173.033 107.273C173.236 106.998 173.376 106.664 173.452 106.271H175.909C175.848 107.043 175.62 107.727 175.227 108.324C174.834 108.916 174.299 109.38 173.622 109.716C172.945 110.047 172.15 110.213 171.236 110.213ZM182.779 110.213C181.69 110.213 180.755 109.974 179.973 109.496C179.197 109.018 178.598 108.357 178.176 107.514C177.76 106.667 177.551 105.691 177.551 104.588C177.551 103.48 177.765 102.502 178.191 101.655C178.617 100.803 179.218 100.14 179.995 99.6662C180.776 99.188 181.699 98.9489 182.765 98.9489C183.65 98.9489 184.434 99.1122 185.115 99.4389C185.802 99.7609 186.349 100.218 186.756 100.81C187.163 101.397 187.395 102.083 187.452 102.869H184.995C184.895 102.344 184.658 101.906 184.284 101.555C183.915 101.2 183.42 101.023 182.8 101.023C182.275 101.023 181.813 101.165 181.415 101.449C181.017 101.728 180.707 102.131 180.485 102.656C180.267 103.182 180.158 103.812 180.158 104.545C180.158 105.289 180.267 105.928 180.485 106.463C180.703 106.993 181.008 107.403 181.401 107.692C181.799 107.976 182.265 108.118 182.8 108.118C183.179 108.118 183.517 108.047 183.816 107.905C184.119 107.758 184.372 107.547 184.576 107.273C184.779 106.998 184.919 106.664 184.995 106.271H187.452C187.391 107.043 187.163 107.727 186.77 108.324C186.377 108.916 185.842 109.38 185.165 109.716C184.488 110.047 183.693 110.213 182.779 110.213ZM194.393 110.213C193.299 110.213 192.354 109.986 191.559 109.531C190.768 109.072 190.16 108.423 189.734 107.585C189.308 106.742 189.094 105.75 189.094 104.609C189.094 103.487 189.308 102.502 189.734 101.655C190.165 100.803 190.766 100.14 191.538 99.6662C192.309 99.188 193.216 98.9489 194.258 98.9489C194.93 98.9489 195.565 99.0578 196.161 99.2756C196.763 99.4886 197.293 99.8201 197.752 100.27C198.216 100.72 198.581 101.293 198.846 101.989C199.111 102.68 199.244 103.504 199.244 104.46V105.249H190.302V103.516H196.779C196.774 103.023 196.668 102.585 196.46 102.202C196.251 101.813 195.96 101.508 195.586 101.286C195.217 101.063 194.786 100.952 194.293 100.952C193.768 100.952 193.306 101.08 192.908 101.335C192.511 101.586 192.201 101.918 191.978 102.33C191.76 102.737 191.649 103.184 191.644 103.672V105.185C191.644 105.819 191.76 106.364 191.992 106.818C192.224 107.268 192.549 107.614 192.965 107.855C193.382 108.092 193.87 108.21 194.428 108.21C194.802 108.21 195.141 108.158 195.444 108.054C195.747 107.945 196.01 107.786 196.232 107.578C196.455 107.37 196.623 107.112 196.737 106.804L199.137 107.074C198.986 107.708 198.697 108.262 198.271 108.736C197.849 109.205 197.309 109.569 196.651 109.83C195.993 110.085 195.24 110.213 194.393 110.213ZM210.041 101.974L207.697 102.23C207.631 101.993 207.515 101.771 207.349 101.562C207.188 101.354 206.97 101.186 206.696 101.058C206.421 100.93 206.085 100.866 205.687 100.866C205.152 100.866 204.702 100.982 204.338 101.214C203.978 101.446 203.8 101.747 203.805 102.116C203.8 102.434 203.916 102.692 204.153 102.891C204.395 103.089 204.792 103.253 205.346 103.381L207.207 103.778C208.239 104.001 209.006 104.354 209.508 104.837C210.015 105.32 210.27 105.952 210.275 106.733C210.27 107.42 210.069 108.026 209.672 108.551C209.279 109.072 208.732 109.479 208.031 109.773C207.33 110.066 206.525 110.213 205.616 110.213C204.281 110.213 203.206 109.934 202.392 109.375C201.577 108.812 201.092 108.028 200.936 107.024L203.443 106.783C203.556 107.275 203.798 107.647 204.167 107.898C204.537 108.149 205.017 108.274 205.609 108.274C206.22 108.274 206.71 108.149 207.079 107.898C207.453 107.647 207.64 107.337 207.64 106.967C207.64 106.655 207.52 106.397 207.278 106.193C207.041 105.99 206.672 105.833 206.17 105.724L204.309 105.334C203.263 105.116 202.489 104.749 201.987 104.233C201.485 103.712 201.236 103.054 201.241 102.259C201.236 101.586 201.419 101.004 201.788 100.511C202.162 100.014 202.681 99.6307 203.343 99.3608C204.011 99.0862 204.78 98.9489 205.652 98.9489C206.93 98.9489 207.936 99.2211 208.67 99.7656C209.409 100.31 209.866 101.046 210.041 101.974ZM215.542 95.4545L215.307 105.724H213.02L212.793 95.4545H215.542ZM214.164 110.156C213.733 110.156 213.364 110.005 213.056 109.702C212.753 109.399 212.601 109.029 212.601 108.594C212.601 108.168 212.753 107.803 213.056 107.5C213.364 107.197 213.733 107.045 214.164 107.045C214.585 107.045 214.95 107.197 215.257 107.5C215.57 107.803 215.726 108.168 215.726 108.594C215.726 108.883 215.653 109.145 215.506 109.382C215.364 109.619 215.175 109.808 214.938 109.95C214.706 110.088 214.448 110.156 214.164 110.156Z" fill="#0E0E0E"/>
<line x1="81" y1="169.5" x2="272" y2="169.5" stroke="#7C7C7C" stroke-dasharray="2 2"/>
<rect x="28" y="355" width="290" height="55" rx="5" fill="#F8F9FD"/>
<rect x="43" y="364" width="60" height="37" rx="5" fill="#293C62"/>
<path d="M58.9045 377.973V386.7H57.5877V377.973H58.9045ZM63.0474 386.7H60.2221V377.973H63.1369C63.992 377.973 64.7263 378.147 65.34 378.497C65.9536 378.843 66.4238 379.342 66.7505 379.993C67.08 380.64 67.2448 381.417 67.2448 382.324C67.2448 383.233 67.0786 384.014 66.7462 384.667C66.4167 385.321 65.9394 385.824 65.3144 386.176C64.6894 386.525 63.9337 386.7 63.0474 386.7ZM61.5388 385.549H62.9749C63.6397 385.549 64.1923 385.424 64.6326 385.174C65.0729 384.922 65.4025 384.556 65.6212 384.079C65.84 383.599 65.9494 383.014 65.9494 382.324C65.9494 381.639 65.84 381.058 65.6212 380.581C65.4053 380.103 65.0829 379.741 64.6539 379.494C64.2249 379.247 63.6923 379.123 63.0559 379.123H61.5388V385.549ZM71.4527 386.7L72.8845 377.973H73.9072L72.4754 386.7H71.4527ZM67.5024 384.365L67.6686 383.342H74.2822L74.1161 384.365H67.5024ZM68.3845 386.7L69.8163 377.973H70.8391L69.4072 386.7H68.3845ZM68.0095 381.331L68.1757 380.308H74.7893L74.6232 381.331H68.0095ZM77.7793 386.7V385.745L80.7325 382.686C81.0478 382.353 81.3077 382.062 81.5123 381.812C81.7197 381.559 81.8745 381.319 81.9768 381.092C82.079 380.865 82.1302 380.623 82.1302 380.368C82.1302 380.078 82.062 379.828 81.9256 379.618C81.7893 379.404 81.6032 379.241 81.3674 379.128C81.1316 379.011 80.866 378.953 80.5705 378.953C80.258 378.953 79.9853 379.017 79.7523 379.145C79.5194 379.272 79.3404 379.453 79.2154 379.686C79.0904 379.919 79.0279 380.191 79.0279 380.504H77.7708C77.7708 379.973 77.893 379.508 78.1373 379.11C78.3816 378.713 78.7168 378.404 79.143 378.186C79.5691 377.964 80.0535 377.853 80.5961 377.853C81.1444 377.853 81.6273 377.963 82.045 378.181C82.4654 378.397 82.7935 378.693 83.0293 379.068C83.2651 379.44 83.383 379.86 83.383 380.329C83.383 380.653 83.3219 380.97 83.1998 381.279C83.0805 381.589 82.8717 381.934 82.5734 382.315C82.2751 382.693 81.8603 383.152 81.329 383.691L79.5947 385.507V385.571H83.5236V386.7H77.7793ZM87.8498 377.973V386.7H86.5288V379.294H86.4776L84.3896 380.657V379.396L86.5671 377.973H87.8498Z" fill="white"/>
<path d="M121.959 372.273H123.557L126.335 379.057H126.438L129.216 372.273H130.814V381H129.561V374.685H129.48L126.906 380.987H125.866L123.293 374.68H123.212V381H121.959V372.273ZM133.931 381.145C133.516 381.145 133.141 381.068 132.806 380.915C132.471 380.759 132.205 380.533 132.009 380.237C131.816 379.942 131.719 379.58 131.719 379.151C131.719 378.781 131.79 378.477 131.932 378.239C132.074 378 132.266 377.811 132.508 377.672C132.749 377.533 133.019 377.428 133.317 377.357C133.616 377.286 133.92 377.232 134.229 377.195C134.621 377.149 134.939 377.112 135.184 377.084C135.428 377.053 135.606 377.003 135.716 376.935C135.827 376.866 135.883 376.756 135.883 376.602V376.572C135.883 376.2 135.777 375.912 135.567 375.707C135.36 375.503 135.05 375.401 134.638 375.401C134.209 375.401 133.871 375.496 133.624 375.686C133.38 375.874 133.211 376.082 133.117 376.312L131.92 376.04C132.062 375.642 132.269 375.321 132.542 375.077C132.817 374.83 133.134 374.651 133.492 374.54C133.85 374.426 134.226 374.369 134.621 374.369C134.883 374.369 135.16 374.401 135.452 374.463C135.748 374.523 136.023 374.634 136.279 374.795C136.537 374.957 136.749 375.189 136.914 375.49C137.079 375.788 137.161 376.176 137.161 376.653V381H135.917V380.105H135.866C135.783 380.27 135.66 380.432 135.495 380.591C135.33 380.75 135.118 380.882 134.86 380.987C134.601 381.092 134.292 381.145 133.931 381.145ZM134.208 380.122C134.56 380.122 134.861 380.053 135.111 379.913C135.364 379.774 135.556 379.592 135.687 379.368C135.82 379.141 135.887 378.898 135.887 378.639V377.795C135.841 377.841 135.753 377.884 135.623 377.923C135.495 377.96 135.349 377.993 135.184 378.021C135.019 378.047 134.858 378.071 134.702 378.094C134.546 378.114 134.415 378.131 134.31 378.145C134.063 378.176 133.837 378.229 133.633 378.303C133.431 378.376 133.269 378.483 133.147 378.622C133.027 378.759 132.968 378.94 132.968 379.168C132.968 379.483 133.084 379.722 133.317 379.884C133.55 380.043 133.847 380.122 134.208 380.122ZM139.532 372.273V381H138.258V372.273H139.532ZM143.702 374.455V375.477H140.126V374.455H143.702ZM141.085 372.886H142.359V379.078C142.359 379.325 142.396 379.511 142.47 379.636C142.544 379.759 142.639 379.842 142.756 379.888C142.875 379.93 143.004 379.952 143.144 379.952C143.246 379.952 143.335 379.945 143.412 379.93C143.489 379.916 143.548 379.905 143.591 379.896L143.821 380.949C143.747 380.977 143.642 381.006 143.506 381.034C143.369 381.065 143.199 381.082 142.994 381.085C142.659 381.091 142.347 381.031 142.057 380.906C141.767 380.781 141.533 380.588 141.354 380.327C141.175 380.065 141.085 379.737 141.085 379.342V372.886ZM145.926 377.114V381H144.652V372.273H145.909V375.52H145.99C146.143 375.168 146.378 374.888 146.693 374.68C147.008 374.473 147.42 374.369 147.929 374.369C148.378 374.369 148.77 374.462 149.105 374.646C149.443 374.831 149.704 375.107 149.889 375.473C150.077 375.837 150.17 376.291 150.17 376.837V381H148.896V376.99C148.896 376.51 148.773 376.138 148.525 375.874C148.278 375.607 147.935 375.473 147.494 375.473C147.193 375.473 146.923 375.537 146.685 375.665C146.449 375.793 146.263 375.98 146.126 376.227C145.993 376.472 145.926 376.767 145.926 377.114ZM154.092 381.132C153.447 381.132 152.891 380.994 152.425 380.719C151.962 380.44 151.604 380.05 151.352 379.547C151.102 379.041 150.977 378.449 150.977 377.77C150.977 377.099 151.102 376.509 151.352 375.997C151.604 375.486 151.957 375.087 152.408 374.8C152.863 374.513 153.394 374.369 154.002 374.369C154.371 374.369 154.729 374.43 155.076 374.553C155.423 374.675 155.734 374.866 156.009 375.128C156.285 375.389 156.502 375.729 156.661 376.146C156.82 376.561 156.9 377.065 156.9 377.659V378.111H151.697V377.156H155.651C155.651 376.821 155.583 376.524 155.447 376.266C155.31 376.004 155.119 375.798 154.871 375.648C154.627 375.497 154.34 375.422 154.011 375.422C153.653 375.422 153.34 375.51 153.073 375.686C152.809 375.859 152.604 376.087 152.46 376.368C152.317 376.646 152.246 376.949 152.246 377.276V378.021C152.246 378.459 152.323 378.831 152.477 379.138C152.633 379.445 152.85 379.679 153.129 379.841C153.407 380 153.732 380.08 154.104 380.08C154.346 380.08 154.566 380.045 154.765 379.977C154.964 379.906 155.136 379.801 155.281 379.662C155.425 379.523 155.536 379.351 155.613 379.146L156.819 379.364C156.722 379.719 156.549 380.03 156.299 380.297C156.052 380.561 155.741 380.767 155.366 380.915C154.994 381.06 154.569 381.132 154.092 381.132ZM163.6 378.17H164.896L165.808 379.359L166.238 379.888L167.691 381.784H166.345L165.373 380.518L165.041 380.058L163.6 378.17ZM167.973 376.636C167.973 377.568 167.802 378.369 167.461 379.04C167.12 379.707 166.653 380.222 166.059 380.582C165.468 380.94 164.796 381.119 164.044 381.119C163.288 381.119 162.613 380.94 162.019 380.582C161.429 380.222 160.963 379.706 160.622 379.036C160.281 378.365 160.11 377.565 160.11 376.636C160.11 375.705 160.281 374.905 160.622 374.237C160.963 373.567 161.429 373.053 162.019 372.695C162.613 372.334 163.288 372.153 164.044 372.153C164.796 372.153 165.468 372.334 166.059 372.695C166.653 373.053 167.12 373.567 167.461 374.237C167.802 374.905 167.973 375.705 167.973 376.636ZM166.669 376.636C166.669 375.926 166.554 375.328 166.323 374.842C166.096 374.354 165.784 373.984 165.386 373.734C164.991 373.482 164.544 373.355 164.044 373.355C163.541 373.355 163.092 373.482 162.697 373.734C162.302 373.984 161.99 374.354 161.76 374.842C161.532 375.328 161.419 375.926 161.419 376.636C161.419 377.347 161.532 377.946 161.76 378.435C161.99 378.92 162.302 379.29 162.697 379.543C163.092 379.793 163.541 379.918 164.044 379.918C164.544 379.918 164.991 379.793 165.386 379.543C165.784 379.29 166.096 378.92 166.323 378.435C166.554 377.946 166.669 377.347 166.669 376.636ZM174.511 374.455L172.138 381H170.774L168.396 374.455H169.764L171.422 379.491H171.49L173.144 374.455H174.511ZM176.826 381.145C176.411 381.145 176.036 381.068 175.701 380.915C175.366 380.759 175.1 380.533 174.904 380.237C174.711 379.942 174.615 379.58 174.615 379.151C174.615 378.781 174.686 378.477 174.828 378.239C174.97 378 175.161 377.811 175.403 377.672C175.644 377.533 175.914 377.428 176.213 377.357C176.511 377.286 176.815 377.232 177.125 377.195C177.517 377.149 177.835 377.112 178.079 377.084C178.323 377.053 178.501 377.003 178.612 376.935C178.723 376.866 178.778 376.756 178.778 376.602V376.572C178.778 376.2 178.673 375.912 178.463 375.707C178.255 375.503 177.946 375.401 177.534 375.401C177.105 375.401 176.767 375.496 176.519 375.686C176.275 375.874 176.106 376.082 176.012 376.312L174.815 376.04C174.957 375.642 175.164 375.321 175.437 375.077C175.713 374.83 176.029 374.651 176.387 374.54C176.745 374.426 177.122 374.369 177.517 374.369C177.778 374.369 178.055 374.401 178.348 374.463C178.643 374.523 178.919 374.634 179.174 374.795C179.433 374.957 179.644 375.189 179.809 375.49C179.974 375.788 180.056 376.176 180.056 376.653V381H178.812V380.105H178.761C178.678 380.27 178.555 380.432 178.39 380.591C178.225 380.75 178.014 380.882 177.755 380.987C177.497 381.092 177.187 381.145 176.826 381.145ZM177.103 380.122C177.455 380.122 177.757 380.053 178.007 379.913C178.259 379.774 178.451 379.592 178.582 379.368C178.715 379.141 178.782 378.898 178.782 378.639V377.795C178.737 377.841 178.649 377.884 178.518 377.923C178.39 377.96 178.244 377.993 178.079 378.021C177.914 378.047 177.754 378.071 177.598 378.094C177.441 378.114 177.311 378.131 177.205 378.145C176.958 378.176 176.732 378.229 176.528 378.303C176.326 378.376 176.164 378.483 176.042 378.622C175.923 378.759 175.863 378.94 175.863 379.168C175.863 379.483 175.98 379.722 176.213 379.884C176.446 380.043 176.742 380.122 177.103 380.122ZM181.153 381V374.455H182.385V375.494H182.453C182.572 375.142 182.783 374.865 183.084 374.663C183.388 374.459 183.732 374.357 184.115 374.357C184.195 374.357 184.288 374.359 184.396 374.365C184.507 374.371 184.594 374.378 184.656 374.386V375.605C184.605 375.591 184.514 375.575 184.384 375.558C184.253 375.538 184.122 375.528 183.991 375.528C183.69 375.528 183.422 375.592 183.186 375.72C182.953 375.845 182.768 376.02 182.632 376.244C182.496 376.466 182.428 376.719 182.428 377.003V381H181.153ZM186.433 377.114V381H185.159V374.455H186.382V375.52H186.463C186.613 375.173 186.849 374.895 187.17 374.685C187.494 374.474 187.902 374.369 188.393 374.369C188.839 374.369 189.23 374.463 189.565 374.651C189.9 374.835 190.16 375.111 190.345 375.477C190.53 375.844 190.622 376.297 190.622 376.837V381H189.348V376.99C189.348 376.516 189.224 376.145 188.977 375.878C188.73 375.608 188.39 375.473 187.959 375.473C187.663 375.473 187.4 375.537 187.17 375.665C186.943 375.793 186.763 375.98 186.629 376.227C186.498 376.472 186.433 376.767 186.433 377.114ZM196.636 376.053L195.481 376.257C195.432 376.109 195.356 375.969 195.251 375.835C195.148 375.702 195.009 375.592 194.833 375.507C194.657 375.422 194.437 375.379 194.173 375.379C193.812 375.379 193.511 375.46 193.269 375.622C193.028 375.781 192.907 375.987 192.907 376.24C192.907 376.459 192.988 376.635 193.15 376.768C193.312 376.902 193.573 377.011 193.934 377.097L194.974 377.335C195.576 377.474 196.025 377.689 196.32 377.979C196.616 378.268 196.763 378.645 196.763 379.108C196.763 379.5 196.65 379.849 196.423 380.156C196.198 380.46 195.884 380.699 195.481 380.872C195.08 381.045 194.616 381.132 194.087 381.132C193.354 381.132 192.756 380.976 192.293 380.663C191.83 380.348 191.546 379.901 191.441 379.321L192.673 379.134C192.749 379.455 192.907 379.697 193.146 379.862C193.384 380.024 193.695 380.105 194.079 380.105C194.496 380.105 194.83 380.018 195.08 379.845C195.33 379.669 195.455 379.455 195.455 379.202C195.455 378.997 195.378 378.825 195.225 378.686C195.075 378.547 194.843 378.442 194.53 378.371L193.423 378.128C192.812 377.989 192.36 377.767 192.067 377.463C191.778 377.159 191.633 376.774 191.633 376.308C191.633 375.922 191.741 375.584 191.957 375.294C192.173 375.004 192.471 374.778 192.851 374.616C193.232 374.452 193.668 374.369 194.16 374.369C194.867 374.369 195.424 374.523 195.83 374.83C196.236 375.134 196.505 375.541 196.636 376.053ZM200.62 374.455V375.477H197.044V374.455H200.62ZM198.003 372.886H199.277V379.078C199.277 379.325 199.314 379.511 199.388 379.636C199.462 379.759 199.557 379.842 199.674 379.888C199.793 379.93 199.922 379.952 200.062 379.952C200.164 379.952 200.253 379.945 200.33 379.93C200.407 379.916 200.466 379.905 200.509 379.896L200.739 380.949C200.665 380.977 200.56 381.006 200.424 381.034C200.287 381.065 200.117 381.082 199.912 381.085C199.577 381.091 199.265 381.031 198.975 380.906C198.685 380.781 198.451 380.588 198.272 380.327C198.093 380.065 198.003 379.737 198.003 379.342V372.886ZM201.429 381V374.455H202.661V375.494H202.729C202.848 375.142 203.058 374.865 203.36 374.663C203.664 374.459 204.007 374.357 204.391 374.357C204.47 374.357 204.564 374.359 204.672 374.365C204.783 374.371 204.87 374.378 204.932 374.386V375.605C204.881 375.591 204.79 375.575 204.659 375.558C204.529 375.538 204.398 375.528 204.267 375.528C203.966 375.528 203.698 375.592 203.462 375.72C203.229 375.845 203.044 376.02 202.908 376.244C202.772 376.466 202.703 376.719 202.703 377.003V381H201.429ZM206.006 381.379L205.294 380.893L209.909 374.126L210.621 374.612L206.006 381.379ZM207.957 381.136C207.344 381.136 206.808 380.996 206.351 380.714C205.893 380.433 205.538 380.04 205.286 379.534C205.033 379.028 204.906 378.437 204.906 377.761C204.906 377.082 205.033 376.489 205.286 375.98C205.538 375.472 205.893 375.077 206.351 374.795C206.808 374.514 207.344 374.374 207.957 374.374C208.571 374.374 209.107 374.514 209.564 374.795C210.021 375.077 210.376 375.472 210.629 375.98C210.882 376.489 211.009 377.082 211.009 377.761C211.009 378.437 210.882 379.028 210.629 379.534C210.376 380.04 210.021 380.433 209.564 380.714C209.107 380.996 208.571 381.136 207.957 381.136ZM207.962 380.067C208.359 380.067 208.689 379.962 208.95 379.751C209.212 379.538 209.405 379.257 209.53 378.908C209.658 378.558 209.722 378.175 209.722 377.757C209.722 377.339 209.658 376.955 209.53 376.602C209.405 376.25 209.212 375.967 208.95 375.754C208.689 375.541 208.359 375.435 207.962 375.435C207.561 375.435 207.229 375.541 206.964 375.754C206.703 375.967 206.509 376.25 206.381 376.602C206.256 376.955 206.193 377.339 206.193 377.757C206.193 378.175 206.256 378.558 206.381 378.908C206.509 379.257 206.703 379.538 206.964 379.751C207.229 379.962 207.561 380.067 207.962 380.067ZM211.831 381V374.455H213.054V375.52H213.135C213.271 375.159 213.494 374.878 213.804 374.676C214.113 374.472 214.484 374.369 214.916 374.369C215.353 374.369 215.72 374.472 216.015 374.676C216.314 374.881 216.534 375.162 216.676 375.52H216.744C216.9 375.17 217.149 374.892 217.49 374.685C217.831 374.474 218.237 374.369 218.709 374.369C219.302 374.369 219.787 374.555 220.162 374.928C220.54 375.3 220.728 375.861 220.728 376.611V381H219.454V376.73C219.454 376.287 219.334 375.966 219.092 375.767C218.851 375.568 218.562 375.469 218.227 375.469C217.812 375.469 217.49 375.597 217.26 375.852C217.03 376.105 216.915 376.43 216.915 376.828V381H215.645V376.649C215.645 376.294 215.534 376.009 215.312 375.793C215.091 375.577 214.802 375.469 214.447 375.469C214.206 375.469 213.983 375.533 213.778 375.661C213.576 375.786 213.413 375.96 213.288 376.185C213.166 376.409 213.105 376.669 213.105 376.964V381H211.831Z" fill="#0E0E0E"/>
<path d="M127.784 385.273H128.841V391.051C128.841 391.648 128.7 392.18 128.419 392.649C128.141 393.115 127.747 393.483 127.239 393.753C126.73 394.02 126.134 394.153 125.449 394.153C124.764 394.153 124.168 394.02 123.659 393.753C123.151 393.483 122.756 393.115 122.474 392.649C122.196 392.18 122.057 391.648 122.057 391.051V385.273H123.114V390.966C123.114 391.392 123.207 391.771 123.395 392.104C123.582 392.433 123.849 392.693 124.196 392.884C124.545 393.071 124.963 393.165 125.449 393.165C125.935 393.165 126.352 393.071 126.702 392.884C127.051 392.693 127.318 392.433 127.503 392.104C127.69 391.771 127.784 391.392 127.784 390.966V385.273ZM133.696 394.119C133.338 394.114 132.98 394.045 132.622 393.915C132.264 393.784 131.937 393.564 131.642 393.254C131.346 392.942 131.109 392.52 130.93 391.989C130.751 391.455 130.662 390.784 130.662 389.977C130.662 389.205 130.734 388.52 130.879 387.923C131.024 387.324 131.234 386.82 131.51 386.411C131.785 385.999 132.118 385.686 132.507 385.473C132.899 385.26 133.341 385.153 133.832 385.153C134.321 385.153 134.755 385.251 135.136 385.447C135.52 385.641 135.832 385.911 136.074 386.257C136.315 386.604 136.471 387.003 136.542 387.455H135.502C135.406 387.062 135.218 386.737 134.94 386.479C134.662 386.22 134.292 386.091 133.832 386.091C133.156 386.091 132.623 386.385 132.234 386.973C131.848 387.561 131.653 388.386 131.65 389.449H131.718C131.877 389.207 132.066 389.001 132.285 388.831C132.507 388.658 132.751 388.524 133.018 388.43C133.285 388.337 133.568 388.29 133.866 388.29C134.366 388.29 134.824 388.415 135.238 388.665C135.653 388.912 135.985 389.254 136.235 389.692C136.485 390.126 136.61 390.625 136.61 391.188C136.61 391.727 136.49 392.222 136.248 392.67C136.007 393.116 135.667 393.472 135.23 393.736C134.795 393.997 134.284 394.125 133.696 394.119ZM133.696 393.182C134.054 393.182 134.375 393.092 134.659 392.913C134.946 392.734 135.172 392.494 135.336 392.193C135.504 391.892 135.588 391.557 135.588 391.188C135.588 390.827 135.507 390.499 135.345 390.203C135.186 389.905 134.966 389.668 134.684 389.491C134.406 389.315 134.088 389.227 133.73 389.227C133.46 389.227 133.208 389.281 132.975 389.389C132.743 389.494 132.538 389.639 132.362 389.824C132.189 390.009 132.052 390.22 131.953 390.459C131.853 390.695 131.804 390.943 131.804 391.205C131.804 391.551 131.885 391.875 132.047 392.176C132.211 392.477 132.436 392.72 132.72 392.905C133.007 393.089 133.332 393.182 133.696 393.182ZM142.053 389.168V390.105H138.235V389.168H142.053ZM149.686 385.273H150.743V391.051C150.743 391.648 150.603 392.18 150.321 392.649C150.043 393.115 149.65 393.483 149.141 393.753C148.632 394.02 148.036 394.153 147.351 394.153C146.667 394.153 146.07 394.02 145.561 393.753C145.053 393.483 144.658 393.115 144.377 392.649C144.098 392.18 143.959 391.648 143.959 391.051V385.273H145.016V390.966C145.016 391.392 145.11 391.771 145.297 392.104C145.485 392.433 145.752 392.693 146.098 392.884C146.448 393.071 146.865 393.165 147.351 393.165C147.837 393.165 148.255 393.071 148.604 392.884C148.953 392.693 149.221 392.433 149.405 392.104C149.593 391.771 149.686 391.392 149.686 390.966V385.273ZM155.479 385.153C155.837 385.156 156.195 385.224 156.553 385.358C156.911 385.491 157.237 385.713 157.533 386.023C157.828 386.33 158.065 386.749 158.244 387.28C158.423 387.811 158.513 388.477 158.513 389.278C158.513 390.054 158.439 390.743 158.291 391.345C158.146 391.945 157.936 392.45 157.661 392.862C157.388 393.274 157.055 393.587 156.663 393.8C156.274 394.013 155.834 394.119 155.342 394.119C154.854 394.119 154.418 394.023 154.034 393.83C153.653 393.634 153.341 393.362 153.097 393.016C152.855 392.666 152.7 392.261 152.632 391.801H153.672C153.766 392.202 153.952 392.533 154.23 392.794C154.511 393.053 154.882 393.182 155.342 393.182C156.016 393.182 156.547 392.888 156.936 392.3C157.328 391.712 157.524 390.881 157.524 389.807H157.456C157.297 390.045 157.108 390.251 156.889 390.425C156.67 390.598 156.428 390.732 156.161 390.825C155.893 390.919 155.609 390.966 155.308 390.966C154.808 390.966 154.349 390.842 153.932 390.595C153.517 390.345 153.185 390.003 152.935 389.568C152.688 389.131 152.564 388.631 152.564 388.068C152.564 387.534 152.683 387.045 152.922 386.602C153.163 386.156 153.501 385.801 153.936 385.537C154.374 385.273 154.888 385.145 155.479 385.153ZM155.479 386.091C155.121 386.091 154.798 386.18 154.511 386.359C154.227 386.536 154.001 386.774 153.834 387.075C153.669 387.374 153.587 387.705 153.587 388.068C153.587 388.432 153.666 388.763 153.825 389.061C153.987 389.357 154.207 389.592 154.486 389.768C154.767 389.942 155.087 390.028 155.445 390.028C155.714 390.028 155.966 389.976 156.199 389.871C156.432 389.763 156.635 389.616 156.808 389.432C156.984 389.244 157.122 389.033 157.222 388.797C157.321 388.558 157.371 388.31 157.371 388.051C157.371 387.71 157.288 387.391 157.124 387.092C156.962 386.794 156.737 386.553 156.45 386.368C156.166 386.183 155.842 386.091 155.479 386.091Z" fill="#0E0E0E"/>
<line x1="140" y1="508.5" x2="207" y2="508.5" stroke="#F8F9FD"/>
</svg>
